<svg xmlns="http://www.w3.org/2000/svg" width="42" height="42" viewBox="0 0 42 42">
  <g id="armorment-custom-options-icon" transform="translate(901 -7347)">
    <g id="Ellipse_82" data-name="Ellipse 82" transform="translate(-901 7347)" fill="#fff" stroke="#b9262c" stroke-width="1">
      <circle cx="21" cy="21" r="21" stroke="none"/>
      <circle cx="21" cy="21" r="20.5" fill="none"/>
    </g>
    <g id="Group_415" data-name="Group 415" transform="translate(-891.958 7355.342)">
      <g id="Group_416" data-name="Group 416" transform="translate(0.958 0.958)">
        <path id="Path_944" data-name="Path 944" d="M158.2,162.665v-2.172a.751.751,0,0,0-.751-.751H156.8a.838.838,0,0,0-.838.838v2.085" transform="translate(-142.747 -146.193)" fill="none" stroke="#b9262c" stroke-linecap="round" stroke-linejoin="round" stroke-width="1.15"/>
        <path id="Path_945" data-name="Path 945" d="M183.786,177.334v-3.451a.751.751,0,0,0-.751-.751H182.3a.751.751,0,0,0-.751.751v1.963" transform="translate(-166.089 -158.411)" fill="none" stroke="#b9262c" stroke-linecap="round" stroke-linejoin="round" stroke-width="1.15"/>
        <path id="Path_946" data-name="Path 946" d="M90.454,109.02v-5.136a1.119,1.119,0,1,0-2.237,0l.016,7.449a.8.8,0,0,1-.792.8.625.625,0,0,1-.587-.4c-.131-.335-.324-.831-.5-1.3a1.378,1.378,0,0,0-1.717-.827l-.024.008a.644.644,0,0,0-.427.768,18.4,18.4,0,0,1,1.062,3.641l.448,2.453a3.754,3.754,0,0,0,1.048,1.809l.707.677v1.842" transform="translate(-77.236 -94.205)" fill="none" stroke="#b9262c" stroke-linecap="round" stroke-linejoin="round" stroke-width="1.15"/>
        <path id="Path_947" data-name="Path 947" d="M207.13,190.013v-1.688a.838.838,0,0,1,.838-.838h.651a.751.751,0,0,1,.751.751v4.679a4.692,4.692,0,0,1-1.135,3.06l-.215.25a1.877,1.877,0,0,0-.454,1.224v.665" transform="translate(-189.432 -171.509)" fill="none" stroke="#b9262c" stroke-linecap="round" stroke-linejoin="round" stroke-width="1.15"/>
        <line id="Line_110" data-name="Line 110" x2="2.938" transform="translate(0 6.071)" fill="none" stroke="#b9262c" stroke-linecap="round" stroke-linejoin="round" stroke-width="1.15"/>
        <line id="Line_111" data-name="Line 111" x2="10.556" transform="translate(8.541 6.071)" fill="none" stroke="#b9262c" stroke-linecap="round" stroke-linejoin="round" stroke-width="1.15"/>
        <line id="Line_112" data-name="Line 112" x2="9.336" transform="translate(0 10.281)" fill="none" stroke="#b9262c" stroke-linecap="round" stroke-linejoin="round" stroke-width="1.15"/>
        <line id="Line_113" data-name="Line 113" x2="4.326" transform="translate(14.772 10.281)" fill="none" stroke="#b9262c" stroke-linecap="round" stroke-linejoin="round" stroke-width="1.15"/>
        <line id="Line_114" data-name="Line 114" x2="8.001" transform="translate(0 1.861)" fill="none" stroke="#b9262c" stroke-linecap="round" stroke-linejoin="round" stroke-width="1.15"/>
        <line id="Line_115" data-name="Line 115" x2="5.494" transform="translate(13.604 1.861)" fill="none" stroke="#b9262c" stroke-linecap="round" stroke-linejoin="round" stroke-width="1.15"/>
        <circle id="Ellipse_96" data-name="Ellipse 96" cx="1.861" cy="1.861" r="1.861" transform="translate(3.076 4.21)" fill="none" stroke="#b9262c" stroke-linecap="round" stroke-linejoin="round" stroke-width="1.15"/>
        <circle id="Ellipse_97" data-name="Ellipse 97" cx="1.861" cy="1.861" r="1.861" transform="translate(9.745 0)" fill="none" stroke="#b9262c" stroke-linecap="round" stroke-linejoin="round" stroke-width="1.15"/>
      </g>
    </g>
  </g>
</svg>
