<svg xmlns="http://www.w3.org/2000/svg" width="42" height="42" viewBox="0 0 42 42">
  <g id="armorment-expert-support-icon" transform="translate(901 -7473)">
    <g id="Ellipse_84" data-name="Ellipse 84" transform="translate(-901 7473)" fill="#fff" stroke="#b9262c" stroke-width="1">
      <circle cx="21" cy="21" r="21" stroke="none"/>
      <circle cx="21" cy="21" r="20.5" fill="none"/>
    </g>
    <g id="Group_394" data-name="Group 394" transform="translate(-897.874 7473.001)">
      <g id="Group_395" data-name="Group 395" transform="translate(6.874 5.999)">
        <circle id="Ellipse_80" data-name="Ellipse 80" cx="8.029" cy="8.029" r="8.029" transform="translate(1.163 16.161) rotate(-76.542)" fill="none" stroke="#b9262c" stroke-linecap="round" stroke-linejoin="round" stroke-width="1"/>
        <path id="Path_893" data-name="Path 893" d="M38.412,12.649a9.359,9.359,0,0,1,17.918,0" transform="translate(-36.531 -5.999)" fill="none" stroke="#b9262c" stroke-linecap="round" stroke-linejoin="round" stroke-width="1"/>
        <path id="Path_894" data-name="Path 894" d="M20.866,86.682a3.761,3.761,0,1,1,0-7.522" transform="translate(-17.105 -72.7)" fill="none" stroke="#b9262c" stroke-linecap="round" stroke-linejoin="round" stroke-width="1"/>
        <path id="Path_895" data-name="Path 895" d="M220.043,79.161a3.761,3.761,0,1,1,0,7.522" transform="translate(-202.124 -72.701)" fill="none" stroke="#b9262c" stroke-linecap="round" stroke-linejoin="round" stroke-width="1"/>
        <path id="Path_896" data-name="Path 896" d="M6,255.525H6a9.677,9.677,0,0,1,9.677-9.677h0a9.677,9.677,0,0,1,9.677,9.677" transform="translate(-4.837 -226.963)" fill="none" stroke="#b9262c" stroke-linecap="round" stroke-linejoin="round" stroke-width="1"/>
        <path id="Path_897" data-name="Path 897" d="M125.8,161.429v1.77H115.173" transform="translate(-106.514 -147.705)" fill="none" stroke="#b9262c" stroke-linecap="round" stroke-linejoin="round" stroke-width="1"/>
        <line id="Line_102" data-name="Line 102" x2="1.357" transform="translate(8.665 15.089)" fill="none" stroke="#b9262c" stroke-linecap="round" stroke-linejoin="round" stroke-width="1"/>
      </g>
    </g>
  </g>
</svg>
