<svg xmlns="http://www.w3.org/2000/svg" width="42" height="42" viewBox="0 0 42 42">
  <g id="fire-mission-aerial-fire-breaks-icon" transform="translate(-1161 -7647)">
    <g id="Ellipse_51" data-name="Ellipse 51" transform="translate(1161 7647)" fill="#fff" stroke="#b9262c" stroke-width="1">
      <circle cx="21" cy="21" r="21" stroke="none"/>
      <circle cx="21" cy="21" r="20.5" fill="none"/>
    </g>
    <path id="Path_798" data-name="Path 798" d="M15.275,25.491s2.655-1.415,2.655-3.653c0-2.863-2.233-2.1-2.233-5.3-1.257.757-1.08,3.192-1.08,3.192-1.292-1.1-2.092-5.2-2.092-5.2C8.719,16.66,9.988,21.4,9.988,21.4a5.975,5.975,0,0,1-1.5-3.466c-2.221,3.511-1.269,5.945,1.586,7.558H8.094c-6.38-3.6-9.647-9.046-4.685-16.891,0,0,.42,5.1,3.361,7.746,0,0-2.836-10.591,5.672-15.347,0,0,1.785,9.169,4.674,11.62,0,0-.394-5.442,2.416-7.134,0,7.159,4.988,5.443,4.988,11.841,0,5-7.074,8.163-7.074,8.163Z" transform="translate(1169.24 7654)" fill="none" stroke="#b9262c" stroke-linecap="round" stroke-linejoin="round" stroke-width="1"/>
  </g>
</svg>
