<svg xmlns="http://www.w3.org/2000/svg" xmlns:xlink="http://www.w3.org/1999/xlink" width="42" height="42" viewBox="0 0 42 42">
  <defs>
    <clipPath id="clip-path">
      <rect id="Rectangle_225" data-name="Rectangle 225" width="29" height="29" transform="translate(0 -0.24)" fill="#b9262c" stroke="#b9262c" stroke-width="0.25"/>
    </clipPath>
  </defs>
  <g id="fire-mission-night-operations-icon" transform="translate(-1161 -7787)">
    <g id="Ellipse_52" data-name="Ellipse 52" transform="translate(1161 7787)" fill="#fff" stroke="#b9262c" stroke-width="1">
      <circle cx="21" cy="21" r="21" stroke="none"/>
      <circle cx="21" cy="21" r="20.5" fill="none"/>
    </g>
    <g id="Group_352" data-name="Group 352" transform="translate(1167.938 7792.178)">
      <g id="Group_351" data-name="Group 351" transform="translate(0.062 0.062)" clip-path="url(#clip-path)">
        <path id="Path_799" data-name="Path 799" d="M385.51,451.021a5.51,5.51,0,1,1,5.51-5.51,5.517,5.517,0,0,1-5.51,5.51m0-10.317a4.807,4.807,0,1,0,4.807,4.807,4.812,4.812,0,0,0-4.807-4.807" transform="translate(-371.13 -429.723)" fill="#b9262c" stroke="#b9262c" stroke-width="0.25"/>
        <path id="Path_800" data-name="Path 800" d="M601.758,603.517a.351.351,0,0,1-.195-.059l-1.407-.938a.351.351,0,0,1-.157-.293v-1.876a.352.352,0,1,1,.7,0v1.688l1.25.834a.352.352,0,0,1-.2.644" transform="translate(-585.971 -585.972)" fill="#b9262c" stroke="#b9262c" stroke-width="0.25"/>
        <path id="Path_801" data-name="Path 801" d="M541.759,103.517a1.759,1.759,0,1,1,1.759-1.759,1.761,1.761,0,0,1-1.759,1.759m0-2.814a1.055,1.055,0,1,0,1.055,1.055,1.057,1.057,0,0,0-1.055-1.055" transform="translate(-527.378 -97.696)" fill="#b9262c" stroke="#b9262c" stroke-width="0.25"/>
        <path id="Path_802" data-name="Path 802" d="M600.352,1.172A.352.352,0,0,1,600,.821V.352a.352.352,0,1,1,.7,0V.821a.352.352,0,0,1-.352.352" transform="translate(-585.971 -0.041)" fill="#b9262c" stroke="#b9262c" stroke-width="0.25"/>
        <path id="Path_803" data-name="Path 803" d="M600.352,301.172a.352.352,0,0,1-.352-.352v-.469a.352.352,0,1,1,.7,0v.469a.352.352,0,0,1-.352.352" transform="translate(-585.971 -293.006)" fill="#b9262c" stroke="#b9262c" stroke-width="0.25"/>
        <path id="Path_804" data-name="Path 804" d="M487.538,47.89a.35.35,0,0,1-.249-.1l-.332-.332a.352.352,0,0,1,.5-.5l.332.332a.352.352,0,0,1-.249.6" transform="translate(-475.479 -45.797)" fill="#b9262c" stroke="#b9262c" stroke-width="0.25"/>
        <path id="Path_805" data-name="Path 805" d="M699.688,260.039a.35.35,0,0,1-.249-.1l-.332-.332a.352.352,0,0,1,.5-.5l.332.332a.352.352,0,0,1-.249.6" transform="translate(-682.654 -252.972)" fill="#b9262c" stroke="#b9262c" stroke-width="0.25"/>
        <path id="Path_806" data-name="Path 806" d="M440.821,160.7h-.469a.352.352,0,1,1,0-.7h.469a.352.352,0,1,1,0,.7" transform="translate(-429.723 -156.289)" fill="#b9262c" stroke="#b9262c" stroke-width="0.25"/>
        <path id="Path_807" data-name="Path 807" d="M740.821,160.7h-.469a.352.352,0,0,1,0-.7h.469a.352.352,0,1,1,0,.7" transform="translate(-722.688 -156.289)" fill="#b9262c" stroke="#b9262c" stroke-width="0.25"/>
        <path id="Path_808" data-name="Path 808" d="M487.207,260.039a.352.352,0,0,1-.249-.6l.332-.332a.352.352,0,1,1,.5.5l-.332.332a.35.35,0,0,1-.249.1" transform="translate(-475.479 -252.972)" fill="#b9262c" stroke="#b9262c" stroke-width="0.25"/>
        <path id="Path_809" data-name="Path 809" d="M699.356,47.89a.352.352,0,0,1-.249-.6l.332-.332a.352.352,0,0,1,.5.5l-.332.332a.35.35,0,0,1-.249.1" transform="translate(-682.654 -45.797)" fill="#b9262c" stroke="#b9262c" stroke-width="0.25"/>
        <path id="Path_810" data-name="Path 810" d="M103.166,882.11a.352.352,0,0,1-.352-.352,1.055,1.055,0,0,0-2.11,0,.352.352,0,1,1-.7,0,1.759,1.759,0,0,1,3.517,0,.352.352,0,0,1-.352.352" transform="translate(-97.695 -859.406)" fill="#b9262c" stroke="#b9262c" stroke-width="0.25"/>
        <path id="Path_811" data-name="Path 811" d="M160.352,781.172a.352.352,0,0,1-.352-.352v-.469a.352.352,0,1,1,.7,0v.469a.352.352,0,0,1-.352.352" transform="translate(-156.288 -761.751)" fill="#b9262c" stroke="#b9262c" stroke-width="0.25"/>
        <path id="Path_812" data-name="Path 812" d="M47.538,827.89a.35.35,0,0,1-.249-.1l-.332-.332a.352.352,0,0,1,.5-.5l.332.332a.352.352,0,0,1-.249.6" transform="translate(-45.797 -807.507)" fill="#b9262c" stroke="#b9262c" stroke-width="0.25"/>
        <path id="Path_813" data-name="Path 813" d="M.821,940.7H.352a.352.352,0,0,1,0-.7H.821a.352.352,0,0,1,0,.7" transform="translate(-0.04 -917.999)" fill="#b9262c" stroke="#b9262c" stroke-width="0.25"/>
        <path id="Path_814" data-name="Path 814" d="M300.821,940.7h-.469a.352.352,0,0,1,0-.7h.469a.352.352,0,1,1,0,.7" transform="translate(-293.006 -917.999)" fill="#b9262c" stroke="#b9262c" stroke-width="0.25"/>
        <path id="Path_815" data-name="Path 815" d="M259.356,827.89a.352.352,0,0,1-.249-.6l.332-.332a.352.352,0,0,1,.5.5l-.332.332a.35.35,0,0,1-.249.1" transform="translate(-252.971 -807.507)" fill="#b9262c" stroke="#b9262c" stroke-width="0.25"/>
        <path id="Path_816" data-name="Path 816" d="M7.855,1020.7H.352a.352.352,0,1,1,0-.7h7.5a.352.352,0,1,1,0,.7" transform="translate(-0.04 -996.123)" fill="#b9262c" stroke="#b9262c" stroke-width="0.25"/>
        <path id="Path_817" data-name="Path 817" d="M84.1,1100.7H80.352a.352.352,0,0,1,0-.7H84.1a.352.352,0,0,1,0,.7" transform="translate(-78.164 -1074.247)" fill="#b9262c" stroke="#b9262c" stroke-width="0.25"/>
        <path id="Path_818" data-name="Path 818" d="M943.632,807.269a3.635,3.635,0,1,1,1.889-6.739.352.352,0,1,1-.367.6,2.932,2.932,0,1,0,.992,4,.352.352,0,1,1,.6.359,3.6,3.6,0,0,1-3.119,1.776" transform="translate(-917.999 -781.282)" fill="#b9262c" stroke="#b9262c" stroke-width="0.25"/>
        <path id="Path_819" data-name="Path 819" d="M1062.6,825.8a2.695,2.695,0,0,1-.193-5.383.355.355,0,0,1,.375.327.351.351,0,0,1-.327.375,1.992,1.992,0,1,0,.946,3.81.352.352,0,1,1,.281.645,2.7,2.7,0,0,1-1.083.226" transform="translate(-1035.089 -801.217)" fill="#b9262c" stroke="#b9262c" stroke-width="0.25"/>
        <path id="Path_820" data-name="Path 820" d="M877.118,251.021a.352.352,0,0,1-.352-.352V250.2a11.341,11.341,0,0,0-5.2-9.553.352.352,0,1,1,.382-.591A12.043,12.043,0,0,1,877.47,250.2v.469a.352.352,0,0,1-.352.352" transform="translate(-851.014 -234.414)" fill="#b9262c" stroke="#b9262c" stroke-width="0.25"/>
        <path id="Path_821" data-name="Path 821" d="M100.388,251.5a.352.352,0,0,1-.35-.324c-.025-.317-.038-.643-.038-.966a12.363,12.363,0,0,1,5.313-10.14.352.352,0,0,1,.395.583,11.65,11.65,0,0,0-5,9.557c0,.305.012.611.036.91a.352.352,0,0,1-.323.379h-.028" transform="translate(-97.695 -234.422)" fill="#b9262c" stroke="#b9262c" stroke-width="0.25"/>
        <path id="Path_822" data-name="Path 822" d="M424.575,1089.58a12.014,12.014,0,0,1-4.348-.807.352.352,0,0,1,.254-.656,11.4,11.4,0,0,0,10.007-.9.352.352,0,1,1,.366.6,12.056,12.056,0,0,1-6.28,1.759" transform="translate(-410.195 -1061.717)" fill="#b9262c" stroke="#b9262c" stroke-width="0.25"/>
        <path id="Path_823" data-name="Path 823" d="M1041.759,622.111a.35.35,0,0,1-.249-.1L1040.1,620.6a.352.352,0,0,1,.5-.5l1.158,1.158,1.158-1.158a.352.352,0,0,1,.5.5l-1.407,1.407a.35.35,0,0,1-.249.1" transform="translate(-1015.654 -605.503)" fill="#b9262c" stroke="#b9262c" stroke-width="0.25"/>
        <path id="Path_824" data-name="Path 824" d="M421.344,1087.529a.352.352,0,0,1-.3-.175l-1-1.721a.353.353,0,0,1,.128-.481l1.722-1a.352.352,0,0,1,.353.609l-1.418.82.82,1.416a.352.352,0,0,1-.3.528" transform="translate(-410.187 -1058.728)" fill="#b9262c" stroke="#b9262c" stroke-width="0.25"/>
        <path id="Path_825" data-name="Path 825" d="M242.228,242.579a.352.352,0,0,1-.352-.352V240.7h-1.524a.352.352,0,0,1,0-.7h1.876a.352.352,0,0,1,.352.352v1.876a.352.352,0,0,1-.352.352" transform="translate(-234.413 -234.413)" fill="#b9262c" stroke="#b9262c" stroke-width="0.25"/>
        <path id="Path_826" data-name="Path 826" d="M595.938,515.469a.469.469,0,1,0-.469.469.469.469,0,0,0,.469-.469" transform="translate(-581.088 -502.965)" fill="#b9262c" stroke="#b9262c" stroke-width="0.25"/>
        <path id="Path_827" data-name="Path 827" d="M595.938,795.469a.469.469,0,1,0-.469.469.469.469,0,0,0,.469-.469" transform="translate(-581.088 -776.399)" fill="#b9262c" stroke="#b9262c" stroke-width="0.25"/>
        <path id="Path_828" data-name="Path 828" d="M735.938,655.469a.469.469,0,1,0-.469.469.469.469,0,0,0,.469-.469" transform="translate(-717.806 -639.682)" fill="#b9262c" stroke="#b9262c" stroke-width="0.25"/>
        <path id="Path_829" data-name="Path 829" d="M455.938,655.469a.469.469,0,1,0-.469.469.469.469,0,0,0,.469-.469" transform="translate(-444.371 -639.682)" fill="#b9262c" stroke="#b9262c" stroke-width="0.25"/>
      </g>
    </g>
  </g>
</svg>
