<svg xmlns="http://www.w3.org/2000/svg" xmlns:xlink="http://www.w3.org/1999/xlink" width="42" height="42" viewBox="0 0 42 42">
  <defs>
    <clipPath id="clip-path">
      <rect id="Rectangle_232" data-name="Rectangle 232" width="26.379" height="26.376" fill="#b9262c"/>
    </clipPath>
  </defs>
  <g id="construction-aerial-surveys-icon" transform="translate(113 -7619)">
    <g id="Ellipse_62" data-name="Ellipse 62" transform="translate(-113 7619)" fill="#fff" stroke="#b9262c" stroke-width="1">
      <circle cx="21" cy="21" r="21" stroke="none"/>
      <circle cx="21" cy="21" r="20.5" fill="none"/>
    </g>
    <g id="Group_376" data-name="Group 376" transform="translate(-105.189 7626.812)">
      <g id="Group_375" data-name="Group 375" transform="translate(0 0)" clip-path="url(#clip-path)">
        <path id="Path_871" data-name="Path 871" d="M35.842,34a.492.492,0,0,1,.2.043.5.5,0,0,1,.255.661c-.928,2.092-3.595,3-5.807,2.969A.5.5,0,0,1,30,37.164a.493.493,0,0,1,.508-.494c1.832.02,4.139-.708,4.877-2.373a.5.5,0,0,1,.458-.3" transform="translate(-9.967 -11.296)" fill="#b9262c"/>
        <path id="Path_872" data-name="Path 872" d="M9.182,33.119a.5.5,0,0,1-.236-.059.5.5,0,0,1-.2-.678,1.956,1.956,0,0,0,.192-1.5c-.473-.925-1.623-1.241-2.839-1.576a5.852,5.852,0,0,1-3.317-1.725c-.653-.847-.372-2.224-.1-3.554.226-1.1.481-2.348-.024-2.579a1.829,1.829,0,0,0-1.775.15.5.5,0,1,1-.749-.665,2.773,2.773,0,0,1,2.941-.4c1.229.562.9,2.153.59,3.691-.216,1.058-.461,2.258-.088,2.742a5.079,5.079,0,0,0,2.789,1.372c1.372.377,2.791.767,3.466,2.085a2.909,2.909,0,0,1-.2,2.427.5.5,0,0,1-.441.264" transform="translate(0 -6.743)" fill="#b9262c"/>
        <path id="Path_873" data-name="Path 873" d="M14.32,26.377a.5.5,0,0,1-.5-.469c-.109-1.741-.334-2.735-1.318-3.676A5.422,5.422,0,0,0,9.85,21.2c-1.316-.278-2.677-.567-3.432-1.728-.706-1.086-.443-2.35-.19-3.572a5.209,5.209,0,0,0,.134-2.556,6.345,6.345,0,0,0-2.387-2.687C2.508,9.5.843,8.19,1,5.811,1.222,2.327,3.623.373,8.133,0a.5.5,0,1,1,.082,1C4.221,1.329,2.187,2.923,2,5.875c-.12,1.853,1.2,2.893,2.6,3.994a7.156,7.156,0,0,1,2.72,3.164A5.989,5.989,0,0,1,7.209,16.1a3.856,3.856,0,0,0,.049,2.823c.528.813,1.631,1.047,2.8,1.295a6.2,6.2,0,0,1,3.136,1.287c1.211,1.157,1.506,2.417,1.626,4.337a.5.5,0,0,1-.469.532H14.32" transform="translate(-0.328 0)" fill="#b9262c"/>
        <path id="Path_874" data-name="Path 874" d="M25.5,31.692a.478.478,0,0,1-.092-.009.5.5,0,0,1-.4-.584,8.352,8.352,0,0,1,1.3-3.166,8.407,8.407,0,0,1,3.129-2.123,7.574,7.574,0,0,0,2.781-1.847c1.564-1.942,1.462-7.4,1.461-7.451A.5.5,0,0,1,34.17,16a.489.489,0,0,1,.512.489c.005.239.11,5.876-1.682,8.1a8.421,8.421,0,0,1-3.13,2.122A7.574,7.574,0,0,0,27.09,28.56a7.493,7.493,0,0,0-1.1,2.722.5.5,0,0,1-.491.409" transform="translate(-8.306 -5.315)" fill="#b9262c"/>
        <path id="Path_875" data-name="Path 875" d="M5.176,36.344a.5.5,0,0,1-.477-.656,1.884,1.884,0,0,0,.091-.93c-.143-.346-.565-.371-1.425-.348a3.17,3.17,0,0,1-2.27-.5A4.6,4.6,0,0,1,0,30.5a.5.5,0,0,1,1,0,3.656,3.656,0,0,0,.749,2.647,2.482,2.482,0,0,0,1.585.261c.873-.025,1.957-.056,2.379.966A2.713,2.713,0,0,1,5.651,36a.5.5,0,0,1-.475.345" transform="translate(0 -9.967)" fill="#b9262c"/>
        <path id="Path_876" data-name="Path 876" d="M25.3,12.545A5.763,5.763,0,0,0,21.63,8.865c-1.576-.5-4.107-.654-4.634.995-.374,1.149.521,1.977,1.315,2.7a3.882,3.882,0,0,1,1.189,1.5,2.51,2.51,0,0,1-.367,1.643,2.364,2.364,0,0,0-.06,2.618,2.4,2.4,0,0,0,1.663.875,4.224,4.224,0,0,0,.507.033,4.33,4.33,0,0,0,2.544-.815c1.676-1.309,2.03-4,1.509-5.876m-2.123,5.082a3.369,3.369,0,0,1-2.3.581,1.462,1.462,0,0,1-.995-.487c-.334-.441-.167-.848.174-1.589a3.33,3.33,0,0,0,.421-2.317,4.442,4.442,0,0,0-1.476-1.983c-.654-.6-1.075-1.028-1.075-1.456a.6.6,0,0,1,.033-.214c.147-.454.788-.634,1.536-.634a6.33,6.33,0,0,1,1.836.294,4.769,4.769,0,0,1,3.012,3c.434,1.576.12,3.806-1.162,4.808" transform="translate(-5.618 -2.832)" fill="#b9262c"/>
        <path id="Path_877" data-name="Path 877" d="M26.2,9.933a9.982,9.982,0,0,0-7.619-7.125c-3.679-.708-8.14.728-8.928,4.274-.4,1.776.608,2.811,1.583,3.813a6.068,6.068,0,0,1,1.643,2.337,5.054,5.054,0,0,1-.053,2.357c-.207,1.2-.427,2.451.494,3.486A6.123,6.123,0,0,0,17.934,20.8a9.449,9.449,0,0,0,5.409-1.656c2.718-2.01,3.586-6.257,2.858-9.208m-3.452,8.4c-2.371,1.75-6.844,2.123-8.681.073-.6-.674-.441-1.589-.254-2.644a5.8,5.8,0,0,0,.02-2.831,6.961,6.961,0,0,0-1.876-2.738c-.761-.788-1.389-1.429-1.389-2.371a2.447,2.447,0,0,1,.06-.521c.534-2.391,3.319-3.666,6.1-3.666A8.611,8.611,0,0,1,18.4,3.8a8.924,8.924,0,0,1,6.831,6.384c.641,2.564-.127,6.417-2.477,8.153" transform="translate(-3.178 -0.875)" fill="#b9262c"/>
        <path id="Path_878" data-name="Path 878" d="M35.178,7.011a.5.5,0,0,1-.471-.329C33.714,3.963,31.865,2.308,28.324.97a.5.5,0,0,1,.354-.938c3.846,1.454,5.866,3.281,6.971,6.307a.5.5,0,0,1-.3.642.516.516,0,0,1-.172.03" transform="translate(-9.303 0)" fill="#b9262c"/>
      </g>
    </g>
  </g>
</svg>
