<svg xmlns="http://www.w3.org/2000/svg" xmlns:xlink="http://www.w3.org/1999/xlink" width="42" height="42" viewBox="0 0 42 42">
  <defs>
    <clipPath id="clip-path">
      <rect id="Rectangle_234" data-name="Rectangle 234" width="29.84" height="29.84" fill="#b9262c"/>
    </clipPath>
  </defs>
  <g id="construction-precision-placement-icon" transform="translate(3761 -7372)">
    <g id="Ellipse_94" data-name="Ellipse 94" transform="translate(-3761 7372)" fill="#fff" stroke="#b9262c" stroke-width="1">
      <circle cx="21" cy="21" r="21" stroke="none"/>
      <circle cx="21" cy="21" r="20.5" fill="none"/>
    </g>
    <g id="Group_403" data-name="Group 403" transform="translate(-3755 7378)">
      <g id="Group_402" data-name="Group 402" transform="translate(0 0)" clip-path="url(#clip-path)">
        <path id="Path_906" data-name="Path 906" d="M48.747,6.8a.293.293,0,0,1,.293.293v4.264a13.081,13.081,0,0,1,.927,1.882V7.092a1.222,1.222,0,0,0-1.22-1.221H42.6a13.081,13.081,0,0,1,1.882.927Z" transform="translate(-22.85 -3.149)" fill="#b9262c"/>
        <path id="Path_907" data-name="Path 907" d="M6.8,7.092A.293.293,0,0,1,7.1,6.8h4.263a13.067,13.067,0,0,1,1.883-.927H7.1a1.222,1.222,0,0,0-1.22,1.221v6.141a13.065,13.065,0,0,1,.927-1.88Z" transform="translate(-3.152 -3.149)" fill="#b9262c"/>
        <path id="Path_908" data-name="Path 908" d="M49.046,48.748a.293.293,0,0,1-.293.293H44.492a13.065,13.065,0,0,1-1.88.927h6.141a1.222,1.222,0,0,0,1.22-1.221V42.6a13.1,13.1,0,0,1-.927,1.882Z" transform="translate(-22.856 -22.852)" fill="#b9262c"/>
        <path id="Path_909" data-name="Path 909" d="M7.1,49.045a.293.293,0,0,1-.293-.293V44.493a13.06,13.06,0,0,1-.927-1.88v6.139A1.222,1.222,0,0,0,7.1,49.973h6.139a13.083,13.083,0,0,1-1.88-.927Z" transform="translate(-3.151 -22.857)" fill="#b9262c"/>
        <path id="Path_910" data-name="Path 910" d="M29.377,14.456H27.1A12.208,12.208,0,0,0,15.384,2.735V.464a.464.464,0,1,0-.927,0V2.735A12.208,12.208,0,0,0,2.735,14.456H.464a.464.464,0,1,0,0,.927H2.735A12.208,12.208,0,0,0,14.456,27.1v2.272a.464.464,0,1,0,.927,0V27.1A12.208,12.208,0,0,0,27.1,15.384h2.273a.464.464,0,0,0,0-.927M15.384,26.177V23.932a.464.464,0,1,0-.927,0v2.245A11.281,11.281,0,0,1,3.663,15.384H5.908a.464.464,0,1,0,0-.927H3.663A11.282,11.282,0,0,1,14.456,3.663V5.908a.464.464,0,1,0,.927,0V3.663A11.281,11.281,0,0,1,26.177,14.456H23.932a.464.464,0,0,0,0,.927h2.245A11.28,11.28,0,0,1,15.384,26.177" transform="translate(0 0)" fill="#b9262c"/>
        <path id="Path_911" data-name="Path 911" d="M29.966,23.112A5.409,5.409,0,1,1,28.312,20.7l.568-.735a6.378,6.378,0,1,0,1.744,2.291Z" transform="translate(-9.933 -9.934)" fill="#b9262c"/>
        <path id="Path_912" data-name="Path 912" d="M34.509,18.659l-6.189,8-2.514-3.371a.464.464,0,1,0-.744.554l2.879,3.86c.011.014.027.019.039.032a.447.447,0,0,0,.049.057.517.517,0,0,0,.055.029.4.4,0,0,0,.048.025.462.462,0,0,0,.181.042h0a.46.46,0,0,0,.177-.04,6.18,6.18,0,0,0,.1-.052.383.383,0,0,0,.05-.056c.012-.013.029-.018.039-.032l6.563-8.483a.464.464,0,1,0-.733-.567" transform="translate(-13.394 -9.912)" fill="#b9262c"/>
      </g>
    </g>
  </g>
</svg>
