<svg xmlns="http://www.w3.org/2000/svg" xmlns:xlink="http://www.w3.org/1999/xlink" width="71" height="71" viewBox="0 0 71 71">
  <defs>
    <radialGradient id="radial-gradient" cx="0.5" cy="0.5" r="0.5" gradientUnits="objectBoundingBox">
      <stop offset="0" stop-color="#b9262c"/>
      <stop offset="0.662" stop-color="#b7383e"/>
      <stop offset="1" stop-color="#9f1e24"/>
    </radialGradient>
  </defs>
  <g id="chatbot-button" transform="translate(-1322 -774)">
    <g id="Ellipse_10" data-name="Ellipse 10" transform="translate(1322 774)" stroke="#fff" stroke-width="2" fill="url(#radial-gradient)">
      <circle cx="35.5" cy="35.5" r="35.5" stroke="none"/>
      <circle cx="35.5" cy="35.5" r="34.5" fill="none"/>
    </g>
    <path id="comment-solid" d="M31.575,44.839c0,7.092-7.074,12.839-15.8,12.839a18.9,18.9,0,0,1-6.426-1.1A18.282,18.282,0,0,1,6,58.461,13.038,13.038,0,0,1,.96,59.653a.99.99,0,0,1-.7-1.685h0l.019-.019c.019-.019.043-.043.08-.086.068-.074.173-.191.3-.352A11.891,11.891,0,0,0,1.6,56.178,8.985,8.985,0,0,0,2.916,52.3,11.222,11.222,0,0,1-.028,44.839C-.028,37.747,7.046,32,15.774,32S31.575,37.747,31.575,44.839Z" transform="translate(1341.354 763.674)" fill="#fff"/>
  </g>
</svg>
