<?xml version="1.0" encoding="UTF-8"?><svg id="Layer_2" xmlns="http://www.w3.org/2000/svg" xmlns:xlink="http://www.w3.org/1999/xlink" viewBox="0 0 4094.25 1588.91"><defs><style>.cls-1{fill:none;}.cls-1,.cls-2,.cls-3{stroke-width:0px;}.cls-2{fill:url(#New_Pattern);}.cls-3{fill:#171717;}</style><pattern id="New_Pattern" x="0" y="0" width="391.31" height="339.71" patternTransform="translate(10801.51 12953.05) scale(2.13)" patternUnits="userSpaceOnUse" viewBox="0 0 391.31 339.71"><rect class="cls-1" width="391.31" height="339.71"/><path id="Path_631" class="cls-3" d="m1.87,42.46l14.03,4.93-1.14,5.69L1.87,42.46Z"/><path id="Path_1255" class="cls-3" d="m1.87,212.32l14.03,4.93-1.14,5.69-12.89-10.61Z"/><path id="Path_707" class="cls-3" d="m1.87,127.39l14.03,4.93-1.14,5.69-12.89-10.61Z"/><path id="Path_679" class="cls-3" d="m67.16,42.46l14.03,4.93-1.14,5.69-12.89-10.61Z"/><path id="Path_1095" class="cls-3" d="m67.16,212.32l14.03,4.93-1.14,5.69-12.89-10.61Z"/><path id="Path_708" class="cls-3" d="m67.16,127.39l14.03,4.93-1.14,5.69-12.89-10.61Z"/><path id="Path_659" class="cls-3" d="m1.87,0l14.03,4.93-1.14,5.69L1.87,0Z"/><path id="Path_1257" class="cls-3" d="m1.87,169.86l14.03,4.93-1.14,5.69-12.89-10.61Z"/><path id="Path_709" class="cls-3" d="m1.87,84.93l14.03,4.93-1.14,5.69-12.89-10.61Z"/><path id="Path_1258" class="cls-3" d="m1.87,254.78l14.03,4.93-1.14,5.69-12.89-10.61Z"/><path id="Path_680" class="cls-3" d="m67.16,0l14.03,4.93-1.14,5.69L67.16,0Z"/><path id="Path_1097" class="cls-3" d="m67.16,169.86l14.03,4.93-1.14,5.69-12.89-10.61Z"/><path id="Path_710" class="cls-3" d="m67.16,84.93l14.03,4.93-1.14,5.69-12.89-10.61Z"/><path id="Path_1098" class="cls-3" d="m67.16,254.78l14.03,4.93-1.14,5.69-12.89-10.61Z"/><path id="Path_642" class="cls-3" d="m34.52,42.46l14.03,4.93-1.14,5.69-12.89-10.61Z"/><path id="Path_1223" class="cls-3" d="m34.52,212.32l14.03,4.93-1.14,5.69-12.89-10.61Z"/><path id="Path_711" class="cls-3" d="m34.52,127.39l14.03,4.93-1.14,5.69-12.89-10.61Z"/><path id="Path_671" class="cls-3" d="m99.81,42.46l14.03,4.93-1.14,5.69-12.89-10.61Z"/><path id="Path_1099" class="cls-3" d="m99.81,212.32l14.03,4.93-1.14,5.69-12.89-10.61Z"/><path id="Path_712" class="cls-3" d="m99.81,127.39l14.03,4.93-1.14,5.69-12.89-10.61Z"/><path id="Path_649" class="cls-3" d="m34.52,0l14.03,4.93-1.14,5.69L34.52,0Z"/><path id="Path_1225" class="cls-3" d="m34.52,169.86l14.03,4.93-1.14,5.69-12.89-10.61Z"/><path id="Path_713" class="cls-3" d="m34.52,84.93l14.03,4.93-1.14,5.69-12.89-10.61Z"/><path id="Path_1226" class="cls-3" d="m34.52,254.78l14.03,4.93-1.14,5.69-12.89-10.61Z"/><path id="Path_672" class="cls-3" d="m99.81,0l14.03,4.93-1.14,5.69L99.81,0Z"/><path id="Path_1101" class="cls-3" d="m99.81,169.86l14.03,4.93-1.14,5.69-12.89-10.61Z"/><path id="Path_697" class="cls-3" d="m99.81,84.93l14.03,4.93-1.14,5.69-12.89-10.61Z"/><path id="Path_1102" class="cls-3" d="m99.81,254.78l14.03,4.93-1.14,5.69-12.89-10.61Z"/><path id="Path_636" class="cls-3" d="m1.87,63.7l14.03,4.93-1.14,5.69L1.87,63.7Z"/><path id="Path_1259" class="cls-3" d="m1.87,233.55l14.03,4.93-1.14,5.69-12.89-10.61Z"/><path id="Path_714" class="cls-3" d="m1.87,148.62l14.03,4.93-1.14,5.69-12.89-10.61Z"/><path id="Path_681" class="cls-3" d="m67.16,63.7l14.03,4.93-1.14,5.69-12.89-10.61Z"/><path id="Path_1103" class="cls-3" d="m67.16,233.55l14.03,4.93-1.14,5.69-12.89-10.61Z"/><path id="Path_715" class="cls-3" d="m67.16,148.62l14.03,4.93-1.14,5.69-12.89-10.61Z"/><path id="Path_660" class="cls-3" d="m1.87,21.23l14.03,4.93-1.14,5.69L1.87,21.23Z"/><path id="Path_1261" class="cls-3" d="m1.87,191.09l14.03,4.93-1.14,5.69-12.89-10.61Z"/><path id="Path_716" class="cls-3" d="m1.87,106.16l14.03,4.93-1.14,5.69-12.89-10.61Z"/><path id="Path_1262" class="cls-3" d="m1.87,276.02l14.03,4.93-1.14,5.69-12.89-10.61Z"/><path id="Path_682" class="cls-3" d="m67.16,21.23l14.03,4.93-1.14,5.69-12.89-10.61Z"/><path id="Path_1105" class="cls-3" d="m67.16,191.09l14.03,4.93-1.14,5.69-12.89-10.61Z"/><path id="Path_717" class="cls-3" d="m67.16,106.16l14.03,4.93-1.14,5.69-12.89-10.61Z"/><path id="Path_1106" class="cls-3" d="m67.16,276.02l14.03,4.93-1.14,5.69-12.89-10.61Z"/><path id="Path_643" class="cls-3" d="m34.52,63.7l14.03,4.93-1.14,5.69-12.89-10.61Z"/><path id="Path_1227" class="cls-3" d="m34.52,233.55l14.03,4.93-1.14,5.69-12.89-10.61Z"/><path id="Path_718" class="cls-3" d="m34.52,148.62l14.03,4.93-1.14,5.69-12.89-10.61Z"/><path id="Path_673" class="cls-3" d="m99.81,63.7l14.03,4.93-1.14,5.69-12.89-10.61Z"/><path id="Path_1107" class="cls-3" d="m99.81,233.55l14.03,4.93-1.14,5.69-12.89-10.61Z"/><path id="Path_719" class="cls-3" d="m99.81,148.62l14.03,4.93-1.14,5.69-12.89-10.61Z"/><path id="Path_650" class="cls-3" d="m34.52,21.23l14.03,4.93-1.14,5.69-12.89-10.61Z"/><path id="Path_1229" class="cls-3" d="m34.52,191.09l14.03,4.93-1.14,5.69-12.89-10.61Z"/><path id="Path_720" class="cls-3" d="m34.52,106.16l14.03,4.93-1.14,5.69-12.89-10.61Z"/><path id="Path_1230" class="cls-3" d="m34.52,276.02l14.03,4.93-1.14,5.69-12.89-10.61Z"/><path id="Path_674" class="cls-3" d="m99.81,21.23l14.03,4.93-1.14,5.69-12.89-10.61Z"/><path id="Path_1109" class="cls-3" d="m99.81,191.09l14.03,4.93-1.14,5.69-12.89-10.61Z"/><path id="Path_698" class="cls-3" d="m99.81,106.16l14.03,4.93-1.14,5.69-12.89-10.61Z"/><path id="Path_1110" class="cls-3" d="m99.81,276.02l14.03,4.93-1.14,5.69-12.89-10.61Z"/><path id="Path_633" class="cls-3" d="m18.19,42.46l14.03,4.93-1.14,5.69-12.89-10.61Z"/><path id="Path_1239" class="cls-3" d="m18.19,212.32l14.03,4.93-1.14,5.69-12.89-10.61Z"/><path id="Path_721" class="cls-3" d="m18.19,127.39l14.03,4.93-1.14,5.69-12.89-10.61Z"/><path id="Path_683" class="cls-3" d="m83.48,42.46l14.03,4.93-1.14,5.69-12.89-10.61Z"/><path id="Path_1111" class="cls-3" d="m83.48,212.32l14.03,4.93-1.14,5.69-12.89-10.61Z"/><path id="Path_722" class="cls-3" d="m83.48,127.39l14.03,4.93-1.14,5.69-12.89-10.61Z"/><path id="Path_653" class="cls-3" d="m18.19,0l14.03,4.93-1.14,5.69L18.19,0Z"/><path id="Path_1241" class="cls-3" d="m18.19,169.86l14.03,4.93-1.14,5.69-12.89-10.61Z"/><path id="Path_723" class="cls-3" d="m18.19,84.93l14.03,4.93-1.14,5.69-12.89-10.61Z"/><path id="Path_1242" class="cls-3" d="m18.19,254.78l14.03,4.93-1.14,5.69-12.89-10.61Z"/><path id="Path_684" class="cls-3" d="m83.48,0l14.03,4.93-1.14,5.69L83.48,0Z"/><path id="Path_1113" class="cls-3" d="m83.48,169.86l14.03,4.93-1.14,5.69-12.89-10.61Z"/><path id="Path_701" class="cls-3" d="m83.48,84.93l14.03,4.93-1.14,5.69-12.89-10.61Z"/><path id="Path_1114" class="cls-3" d="m83.48,254.78l14.03,4.93-1.14,5.69-12.89-10.61Z"/><path id="Path_639" class="cls-3" d="m50.84,42.46l14.03,4.93-1.14,5.69-12.89-10.61Z"/><path id="Path_1207" class="cls-3" d="m50.84,212.32l14.03,4.93-1.14,5.69-12.89-10.61Z"/><path id="Path_724" class="cls-3" d="m50.84,127.39l14.03,4.93-1.14,5.69-12.89-10.61Z"/><path id="Path_663" class="cls-3" d="m116.13,42.46l14.03,4.93-1.14,5.69-12.89-10.61Z"/><path id="Path_1115" class="cls-3" d="m116.13,212.32l14.03,4.93-1.14,5.69-12.89-10.61Z"/><path id="Path_725" class="cls-3" d="m116.13,127.39l14.03,4.93-1.14,5.69-12.89-10.61Z"/><path id="Path_647" class="cls-3" d="m50.84,0l14.03,4.93-1.14,5.69L50.84,0Z"/><path id="Path_1209" class="cls-3" d="m50.84,169.86l14.03,4.93-1.14,5.69-12.89-10.61Z"/><path id="Path_726" class="cls-3" d="m50.84,84.93l14.03,4.93-1.14,5.69-12.89-10.61Z"/><path id="Path_1210" class="cls-3" d="m50.84,254.78l14.03,4.93-1.14,5.69-12.89-10.61Z"/><path id="Path_664" class="cls-3" d="m116.13,0l14.03,4.93-1.14,5.69L116.13,0Z"/><path id="Path_1117" class="cls-3" d="m116.13,169.86l14.03,4.93-1.14,5.69-12.89-10.61Z"/><path id="Path_695" class="cls-3" d="m116.13,84.93l14.03,4.93-1.14,5.69-12.89-10.61Z"/><path id="Path_1118" class="cls-3" d="m116.13,254.78l14.03,4.93-1.14,5.69-12.89-10.61Z"/><path id="Path_635" class="cls-3" d="m18.19,63.7l14.03,4.93-1.14,5.69-12.89-10.61Z"/><path id="Path_1243" class="cls-3" d="m18.19,233.55l14.03,4.93-1.14,5.69-12.89-10.61Z"/><path id="Path_727" class="cls-3" d="m18.19,148.62l14.03,4.93-1.14,5.69-12.89-10.61Z"/><path id="Path_685" class="cls-3" d="m83.48,63.7l14.03,4.93-1.14,5.69-12.89-10.61Z"/><path id="Path_1119" class="cls-3" d="m83.48,233.55l14.03,4.93-1.14,5.69-12.89-10.61Z"/><path id="Path_728" class="cls-3" d="m83.48,148.62l14.03,4.93-1.14,5.69-12.89-10.61Z"/><path id="Path_654" class="cls-3" d="m18.19,21.23l14.03,4.93-1.14,5.69-12.89-10.61Z"/><path id="Path_1245" class="cls-3" d="m18.19,191.09l14.03,4.93-1.14,5.69-12.89-10.61Z"/><path id="Path_729" class="cls-3" d="m18.19,106.16l14.03,4.93-1.14,5.69-12.89-10.61Z"/><path id="Path_1246" class="cls-3" d="m18.19,276.02l14.03,4.93-1.14,5.69-12.89-10.61Z"/><path id="Path_686" class="cls-3" d="m83.48,21.23l14.03,4.93-1.14,5.69-12.89-10.61Z"/><path id="Path_1121" class="cls-3" d="m83.48,191.09l14.03,4.93-1.14,5.69-12.89-10.61Z"/><path id="Path_702" class="cls-3" d="m83.48,106.16l14.03,4.93-1.14,5.69-12.89-10.61Z"/><path id="Path_1122" class="cls-3" d="m83.48,276.02l14.03,4.93-1.14,5.69-12.89-10.61Z"/><path id="Path_641" class="cls-3" d="m50.84,63.7l14.03,4.93-1.14,5.69-12.89-10.61Z"/><path id="Path_1211" class="cls-3" d="m50.84,233.55l14.03,4.93-1.14,5.69-12.89-10.61Z"/><path id="Path_730" class="cls-3" d="m50.84,148.62l14.03,4.93-1.14,5.69-12.89-10.61Z"/><path id="Path_665" class="cls-3" d="m116.13,63.7l14.03,4.93-1.14,5.69-12.89-10.61Z"/><path id="Path_1123" class="cls-3" d="m116.13,233.55l14.03,4.93-1.14,5.69-12.89-10.61Z"/><path id="Path_731" class="cls-3" d="m116.13,148.62l14.03,4.93-1.14,5.69-12.89-10.61Z"/><path id="Path_651" class="cls-3" d="m50.84,21.23l14.03,4.93-1.14,5.69-12.89-10.61Z"/><path id="Path_1213" class="cls-3" d="m50.84,191.09l14.03,4.93-1.14,5.69-12.89-10.61Z"/><path id="Path_732" class="cls-3" d="m50.84,106.16l14.03,4.93-1.14,5.69-12.89-10.61Z"/><path id="Path_1214" class="cls-3" d="m50.84,276.02l14.03,4.93-1.14,5.69-12.89-10.61Z"/><path id="Path_666" class="cls-3" d="m116.13,21.23l14.03,4.93-1.14,5.69-12.89-10.61Z"/><path id="Path_1125" class="cls-3" d="m116.13,191.09l14.03,4.93-1.14,5.69-12.89-10.61Z"/><path id="Path_699" class="cls-3" d="m116.13,106.16l14.03,4.93-1.14,5.69-12.89-10.61Z"/><path id="Path_1126" class="cls-3" d="m116.13,276.02l14.03,4.93-1.14,5.69-12.89-10.61Z"/><path id="Path_632" class="cls-3" d="m1.87,53.08l14.03,4.93-1.14,5.69L1.87,53.08Z"/><path id="Path_1263" class="cls-3" d="m1.87,222.93l14.03,4.93-1.14,5.69-12.89-10.61Z"/><path id="Path_733" class="cls-3" d="m1.87,138.01l14.03,4.93-1.14,5.69-12.89-10.61Z"/><path id="Path_687" class="cls-3" d="m67.16,53.08l14.03,4.93-1.14,5.69-12.89-10.61Z"/><path id="Path_1127" class="cls-3" d="m67.16,222.93l14.03,4.93-1.14,5.69-12.89-10.61Z"/><path id="Path_734" class="cls-3" d="m67.16,138.01l14.03,4.93-1.14,5.69-12.89-10.61Z"/><path id="Path_661" class="cls-3" d="m1.87,10.62l14.03,4.93-1.14,5.69L1.87,10.62Z"/><path id="Path_1265" class="cls-3" d="m1.87,180.47l14.03,4.93-1.14,5.69-12.89-10.61Z"/><path id="Path_735" class="cls-3" d="m1.87,95.54l14.03,4.93-1.14,5.69-12.89-10.61Z"/><path id="Path_1266" class="cls-3" d="m1.87,265.4l14.03,4.93-1.14,5.69-12.89-10.61Z"/><path id="Path_688" class="cls-3" d="m67.16,10.62l14.03,4.93-1.14,5.69-12.89-10.61Z"/><path id="Path_1129" class="cls-3" d="m67.16,180.47l14.03,4.93-1.14,5.69-12.89-10.61Z"/><path id="Path_736" class="cls-3" d="m67.16,95.54l14.03,4.93-1.14,5.69-12.89-10.61Z"/><path id="Path_1130" class="cls-3" d="m67.16,265.4l14.03,4.93-1.14,5.69-12.89-10.61Z"/><path id="Path_644" class="cls-3" d="m34.52,53.08l14.03,4.93-1.14,5.69-12.89-10.61Z"/><path id="Path_1231" class="cls-3" d="m34.52,222.93l14.03,4.93-1.14,5.69-12.89-10.61Z"/><path id="Path_737" class="cls-3" d="m34.52,138.01l14.03,4.93-1.14,5.69-12.89-10.61Z"/><path id="Path_675" class="cls-3" d="m99.81,53.08l14.03,4.93-1.14,5.69-12.89-10.61Z"/><path id="Path_1131" class="cls-3" d="m99.81,222.93l14.03,4.93-1.14,5.69-12.89-10.61Z"/><path id="Path_738" class="cls-3" d="m99.81,138.01l14.03,4.93-1.14,5.69-12.89-10.61Z"/><path id="Path_652" class="cls-3" d="m34.52,10.62l14.03,4.93-1.14,5.69-12.89-10.61Z"/><path id="Path_1233" class="cls-3" d="m34.52,180.47l14.03,4.93-1.14,5.69-12.89-10.61Z"/><path id="Path_739" class="cls-3" d="m34.52,95.54l14.03,4.93-1.14,5.69-12.89-10.61Z"/><path id="Path_1234" class="cls-3" d="m34.52,265.4l14.03,4.93-1.14,5.69-12.89-10.61Z"/><path id="Path_676" class="cls-3" d="m99.81,10.62l14.03,4.93-1.14,5.69-12.89-10.61Z"/><path id="Path_1133" class="cls-3" d="m99.81,180.47l14.03,4.93-1.14,5.69-12.89-10.61Z"/><path id="Path_700" class="cls-3" d="m99.81,95.54l14.03,4.93-1.14,5.69-12.89-10.61Z"/><path id="Path_1134" class="cls-3" d="m99.81,265.4l14.03,4.93-1.14,5.69-12.89-10.61Z"/><path id="Path_637" class="cls-3" d="m1.87,74.31l14.03,4.93-1.14,5.69-12.89-10.61Z"/><path id="Path_1267" class="cls-3" d="m1.87,244.17l14.03,4.93-1.14,5.69-12.89-10.61Z"/><path id="Path_740" class="cls-3" d="m1.87,159.24l14.03,4.93-1.14,5.69-12.89-10.61Z"/><path id="Path_689" class="cls-3" d="m67.16,74.31l14.03,4.93-1.14,5.69-12.89-10.61Z"/><path id="Path_1135" class="cls-3" d="m67.16,244.17l14.03,4.93-1.14,5.69-12.89-10.61Z"/><path id="Path_741" class="cls-3" d="m67.16,159.24l14.03,4.93-1.14,5.69-12.89-10.61Z"/><path id="Path_662" class="cls-3" d="m1.87,31.85l14.03,4.93-1.14,5.69L1.87,31.85Z"/><path id="Path_1269" class="cls-3" d="m1.87,201.7l14.03,4.93-1.14,5.69-12.89-10.61Z"/><path id="Path_742" class="cls-3" d="m1.87,116.78l14.03,4.93-1.14,5.69-12.89-10.61Z"/><path id="Path_690" class="cls-3" d="m67.16,31.85l14.03,4.93-1.14,5.69-12.89-10.61Z"/><path id="Path_1137" class="cls-3" d="m67.16,201.7l14.03,4.93-1.14,5.69-12.89-10.61Z"/><path id="Path_743" class="cls-3" d="m67.16,116.78l14.03,4.93-1.14,5.69-12.89-10.61Z"/><path id="Path_645" class="cls-3" d="m34.52,74.31l14.03,4.93-1.14,5.69-12.89-10.61Z"/><path id="Path_1235" class="cls-3" d="m34.52,244.17l14.03,4.93-1.14,5.69-12.89-10.61Z"/><path id="Path_744" class="cls-3" d="m34.52,159.24l14.03,4.93-1.14,5.69-12.89-10.61Z"/><path id="Path_677" class="cls-3" d="m99.81,74.31l14.03,4.93-1.14,5.69-12.89-10.61Z"/><path id="Path_1139" class="cls-3" d="m99.81,244.17l14.03,4.93-1.14,5.69-12.89-10.61Z"/><path id="Path_745" class="cls-3" d="m99.81,159.24l14.03,4.93-1.14,5.69-12.89-10.61Z"/><path id="Path_655" class="cls-3" d="m34.52,31.85l14.03,4.93-1.14,5.69-12.89-10.61Z"/><path id="Path_1237" class="cls-3" d="m34.52,201.7l14.03,4.93-1.14,5.69-12.89-10.61Z"/><path id="Path_746" class="cls-3" d="m34.52,116.78l14.03,4.93-1.14,5.69-12.89-10.61Z"/><path id="Path_678" class="cls-3" d="m99.81,31.85l14.03,4.93-1.14,5.69-12.89-10.61Z"/><path id="Path_1141" class="cls-3" d="m99.81,201.7l14.03,4.93-1.14,5.69-12.89-10.61Z"/><path id="Path_703" class="cls-3" d="m99.81,116.78l14.03,4.93-1.14,5.69-12.89-10.61Z"/><path id="Path_634" class="cls-3" d="m18.19,53.08l14.03,4.93-1.14,5.69-12.89-10.61Z"/><path id="Path_1247" class="cls-3" d="m18.19,222.93l14.03,4.93-1.14,5.69-12.89-10.61Z"/><path id="Path_747" class="cls-3" d="m18.19,138.01l14.03,4.93-1.14,5.69-12.89-10.61Z"/><path id="Path_691" class="cls-3" d="m83.48,53.08l14.03,4.93-1.14,5.69-12.89-10.61Z"/><path id="Path_1143" class="cls-3" d="m83.48,222.93l14.03,4.93-1.14,5.69-12.89-10.61Z"/><path id="Path_748" class="cls-3" d="m83.48,138.01l14.03,4.93-1.14,5.69-12.89-10.61Z"/><path id="Path_656" class="cls-3" d="m18.19,10.62l14.03,4.93-1.14,5.69-12.89-10.61Z"/><path id="Path_1249" class="cls-3" d="m18.19,180.47l14.03,4.93-1.14,5.69-12.89-10.61Z"/><path id="Path_749" class="cls-3" d="m18.19,95.54l14.03,4.93-1.14,5.69-12.89-10.61Z"/><path id="Path_1250" class="cls-3" d="m18.19,265.4l14.03,4.93-1.14,5.69-12.89-10.61Z"/><path id="Path_692" class="cls-3" d="m83.48,10.62l14.03,4.93-1.14,5.69-12.89-10.61Z"/><path id="Path_1145" class="cls-3" d="m83.48,180.47l14.03,4.93-1.14,5.69-12.89-10.61Z"/><path id="Path_704" class="cls-3" d="m83.48,95.54l14.03,4.93-1.14,5.69-12.89-10.61Z"/><path id="Path_1146" class="cls-3" d="m83.48,265.4l14.03,4.93-1.14,5.69-12.89-10.61Z"/><path id="Path_640" class="cls-3" d="m50.84,53.08l14.03,4.93-1.14,5.69-12.89-10.61Z"/><path id="Path_1215" class="cls-3" d="m50.84,222.93l14.03,4.93-1.14,5.69-12.89-10.61Z"/><path id="Path_750" class="cls-3" d="m50.84,138.01l14.03,4.93-1.14,5.69-12.89-10.61Z"/><path id="Path_667" class="cls-3" d="m116.13,53.08l14.03,4.93-1.14,5.69-12.89-10.61Z"/><path id="Path_1147" class="cls-3" d="m116.13,222.93l14.03,4.93-1.14,5.69-12.89-10.61Z"/><path id="Path_751" class="cls-3" d="m116.13,138.01l14.03,4.93-1.14,5.69-12.89-10.61Z"/><path id="Path_648" class="cls-3" d="m50.84,10.62l14.03,4.93-1.14,5.69-12.89-10.61Z"/><path id="Path_1217" class="cls-3" d="m50.84,180.47l14.03,4.93-1.14,5.69-12.89-10.61Z"/><path id="Path_752" class="cls-3" d="m50.84,95.54l14.03,4.93-1.14,5.69-12.89-10.61Z"/><path id="Path_1218" class="cls-3" d="m50.84,265.4l14.03,4.93-1.14,5.69-12.89-10.61Z"/><path id="Path_668" class="cls-3" d="m116.13,10.62l14.03,4.93-1.14,5.69-12.89-10.61Z"/><path id="Path_1149" class="cls-3" d="m116.13,180.47l14.03,4.93-1.14,5.69-12.89-10.61Z"/><path id="Path_696" class="cls-3" d="m116.13,95.54l14.03,4.93-1.14,5.69-12.89-10.61Z"/><path id="Path_1150" class="cls-3" d="m116.13,265.4l14.03,4.93-1.14,5.69-12.89-10.61Z"/><path id="Path_638" class="cls-3" d="m18.19,74.31l14.03,4.93-1.14,5.69-12.89-10.61Z"/><path id="Path_1251" class="cls-3" d="m18.19,244.17l14.03,4.93-1.14,5.69-12.89-10.61Z"/><path id="Path_753" class="cls-3" d="m18.19,159.24l14.03,4.93-1.14,5.69-12.89-10.61Z"/><path id="Path_693" class="cls-3" d="m83.48,74.31l14.03,4.93-1.14,5.69-12.89-10.61Z"/><path id="Path_1151" class="cls-3" d="m83.48,244.17l14.03,4.93-1.14,5.69-12.89-10.61Z"/><path id="Path_754" class="cls-3" d="m83.48,159.24l14.03,4.93-1.14,5.69-12.89-10.61Z"/><path id="Path_657" class="cls-3" d="m18.19,31.85l14.03,4.93-1.14,5.69-12.89-10.61Z"/><path id="Path_1253" class="cls-3" d="m18.19,201.7l14.03,4.93-1.14,5.69-12.89-10.61Z"/><path id="Path_755" class="cls-3" d="m18.19,116.78l14.03,4.93-1.14,5.69-12.89-10.61Z"/><path id="Path_694" class="cls-3" d="m83.48,31.85l14.03,4.93-1.14,5.69-12.89-10.61Z"/><path id="Path_1153" class="cls-3" d="m83.48,201.7l14.03,4.93-1.14,5.69-12.89-10.61Z"/><path id="Path_705" class="cls-3" d="m83.48,116.78l14.03,4.93-1.14,5.69-12.89-10.61Z"/><path id="Path_646" class="cls-3" d="m50.84,74.31l14.03,4.93-1.14,5.69-12.89-10.61Z"/><path id="Path_1219" class="cls-3" d="m50.84,244.17l14.03,4.93-1.14,5.69-12.89-10.61Z"/><path id="Path_756" class="cls-3" d="m50.84,159.24l14.03,4.93-1.14,5.69-12.89-10.61Z"/><path id="Path_669" class="cls-3" d="m116.13,74.31l14.03,4.93-1.14,5.69-12.89-10.61Z"/><path id="Path_1155" class="cls-3" d="m116.13,244.17l14.03,4.93-1.14,5.69-12.89-10.61Z"/><path id="Path_757" class="cls-3" d="m116.13,159.24l14.03,4.93-1.14,5.69-12.89-10.61Z"/><path id="Path_658" class="cls-3" d="m50.84,31.85l14.03,4.93-1.14,5.69-12.89-10.61Z"/><path id="Path_1221" class="cls-3" d="m50.84,201.7l14.03,4.93-1.14,5.69-12.89-10.61Z"/><path id="Path_758" class="cls-3" d="m50.84,116.78l14.03,4.93-1.14,5.69-12.89-10.61Z"/><path id="Path_670" class="cls-3" d="m116.13,31.85l14.03,4.93-1.14,5.69-12.89-10.61Z"/><path id="Path_1157" class="cls-3" d="m116.13,201.7l14.03,4.93-1.14,5.69-12.89-10.61Z"/><path id="Path_706" class="cls-3" d="m116.13,116.78l14.03,4.93-1.14,5.69-12.89-10.61Z"/><path id="Path_631-2" class="cls-3" d="m132.45,42.46l14.03,4.93-1.14,5.69-12.89-10.61Z"/><path id="Path_1159" class="cls-3" d="m132.45,212.32l14.03,4.93-1.14,5.69-12.89-10.61Z"/><path id="Path_871" class="cls-3" d="m263.03,42.46l14.03,4.93-1.14,5.69-12.89-10.61Z"/><path id="Path_985" class="cls-3" d="m263.03,212.32l14.03,4.93-1.14,5.69-12.89-10.61Z"/><path id="Path_707-2" class="cls-3" d="m132.45,127.39l14.03,4.93-1.14,5.69-12.89-10.61Z"/><path id="Path_872" class="cls-3" d="m263.03,127.39l14.03,4.93-1.14,5.69-12.89-10.61Z"/><path id="Path_679-2" class="cls-3" d="m197.74,42.46l14.03,4.93-1.14,5.69-12.89-10.61Z"/><path id="Path_1063" class="cls-3" d="m197.74,212.32l14.03,4.93-1.14,5.69-12.89-10.61Z"/><path id="Path_798" class="cls-3" d="m328.32,42.46l14.03,4.93-1.14,5.69-12.89-10.61Z"/><path id="Path_917" class="cls-3" d="m328.32,212.32l14.03,4.93-1.14,5.69-12.89-10.61Z"/><path id="Path_708-2" class="cls-3" d="m197.74,127.39l14.03,4.93-1.14,5.69-12.89-10.61Z"/><path id="Path_799" class="cls-3" d="m328.32,127.39l14.03,4.93-1.14,5.69-12.89-10.61Z"/><path id="Path_659-2" class="cls-3" d="m132.45,0l14.03,4.93-1.14,5.69-12.89-10.61Z"/><path id="Path_1161" class="cls-3" d="m132.45,169.86l14.03,4.93-1.14,5.69-12.89-10.61Z"/><path id="Path_873" class="cls-3" d="m263.03,0l14.03,4.93-1.14,5.69-12.89-10.61Z"/><path id="Path_987" class="cls-3" d="m263.03,169.86l14.03,4.93-1.14,5.69-12.89-10.61Z"/><path id="Path_709-2" class="cls-3" d="m132.45,84.93l14.03,4.93-1.14,5.69-12.89-10.61Z"/><path id="Path_1162" class="cls-3" d="m132.45,254.78l14.03,4.93-1.14,5.69-12.89-10.61Z"/><path id="Path_874" class="cls-3" d="m263.03,84.93l14.03,4.93-1.14,5.69-12.89-10.61Z"/><path id="Path_988" class="cls-3" d="m263.03,254.78l14.03,4.93-1.14,5.69-12.89-10.61Z"/><path id="Path_680-2" class="cls-3" d="m197.74,0l14.03,4.93-1.14,5.69-12.89-10.61Z"/><path id="Path_1065" class="cls-3" d="m197.74,169.86l14.03,4.93-1.14,5.69-12.89-10.61Z"/><path id="Path_800" class="cls-3" d="m328.32,0l14.03,4.93-1.14,5.69-12.89-10.61Z"/><path id="Path_918" class="cls-3" d="m328.32,169.86l14.03,4.93-1.14,5.69-12.89-10.61Z"/><path id="Path_710-2" class="cls-3" d="m197.74,84.93l14.03,4.93-1.14,5.69-12.89-10.61Z"/><path id="Path_1066" class="cls-3" d="m197.74,254.78l14.03,4.93-1.14,5.69-12.89-10.61Z"/><path id="Path_801" class="cls-3" d="m328.32,84.93l14.03,4.93-1.14,5.69-12.89-10.61Z"/><path id="Path_919" class="cls-3" d="m328.32,254.78l14.03,4.93-1.14,5.69-12.89-10.61Z"/><path id="Path_642-2" class="cls-3" d="m165.1,42.46l14.03,4.93-1.14,5.69-12.89-10.61Z"/><path id="Path_1163" class="cls-3" d="m165.1,212.32l14.03,4.93-1.14,5.69-12.89-10.61Z"/><path id="Path_839" class="cls-3" d="m295.67,42.46l14.03,4.93-1.14,5.69-12.89-10.61Z"/><path id="Path_943" class="cls-3" d="m295.67,212.32l14.03,4.93-1.14,5.69-12.89-10.61Z"/><path id="Path_711-2" class="cls-3" d="m165.1,127.39l14.03,4.93-1.14,5.69-12.89-10.61Z"/><path id="Path_840" class="cls-3" d="m295.67,127.39l14.03,4.93-1.14,5.69-12.89-10.61Z"/><path id="Path_671-2" class="cls-3" d="m230.38,42.46l14.03,4.93-1.14,5.69-12.89-10.61Z"/><path id="Path_1022" class="cls-3" d="m230.38,212.32l14.03,4.93-1.14,5.69-12.89-10.61Z"/><path id="Path_712-2" class="cls-3" d="m230.38,127.39l14.03,4.93-1.14,5.69-12.89-10.61Z"/><path id="Path_649-2" class="cls-3" d="m165.1,0l14.03,4.93-1.14,5.69-12.89-10.61Z"/><path id="Path_1165" class="cls-3" d="m165.1,169.86l14.03,4.93-1.14,5.69-12.89-10.61Z"/><path id="Path_841" class="cls-3" d="m295.67,0l14.03,4.93-1.14,5.69-12.89-10.61Z"/><path id="Path_945" class="cls-3" d="m295.67,169.86l14.03,4.93-1.14,5.69-12.89-10.61Z"/><path id="Path_713-2" class="cls-3" d="m165.1,84.93l14.03,4.93-1.14,5.69-12.89-10.61Z"/><path id="Path_1166" class="cls-3" d="m165.1,254.78l14.03,4.93-1.14,5.69-12.89-10.61Z"/><path id="Path_842" class="cls-3" d="m295.67,84.93l14.03,4.93-1.14,5.69-12.89-10.61Z"/><path id="Path_946" class="cls-3" d="m295.67,254.78l14.03,4.93-1.14,5.69-12.89-10.61Z"/><path id="Path_672-2" class="cls-3" d="m230.38,0l14.03,4.93-1.14,5.69-12.89-10.61Z"/><path id="Path_1024" class="cls-3" d="m230.38,169.86l14.03,4.93-1.14,5.69-12.89-10.61Z"/><path id="Path_697-2" class="cls-3" d="m230.38,84.93l14.03,4.93-1.14,5.69-12.89-10.61Z"/><path id="Path_1025" class="cls-3" d="m230.38,254.78l14.03,4.93-1.14,5.69-12.89-10.61Z"/><path id="Path_636-2" class="cls-3" d="m132.45,63.7l14.03,4.93-1.14,5.69-12.89-10.61Z"/><path id="Path_1167" class="cls-3" d="m132.45,233.55l14.03,4.93-1.14,5.69-12.89-10.61Z"/><path id="Path_875" class="cls-3" d="m263.03,63.7l14.03,4.93-1.14,5.69-12.89-10.61Z"/><path id="Path_989" class="cls-3" d="m263.03,233.55l14.03,4.93-1.14,5.69-12.89-10.61Z"/><path id="Path_714-2" class="cls-3" d="m132.45,148.62l14.03,4.93-1.14,5.69-12.89-10.61Z"/><path id="Path_876" class="cls-3" d="m263.03,148.62l14.03,4.93-1.14,5.69-12.89-10.61Z"/><path id="Path_681-2" class="cls-3" d="m197.74,63.7l14.03,4.93-1.14,5.69-12.89-10.61Z"/><path id="Path_1067" class="cls-3" d="m197.74,233.55l14.03,4.93-1.14,5.69-12.89-10.61Z"/><path id="Path_802" class="cls-3" d="m328.32,63.7l14.03,4.93-1.14,5.69-12.89-10.61Z"/><path id="Path_920" class="cls-3" d="m328.32,233.55l14.03,4.93-1.14,5.69-12.89-10.61Z"/><path id="Path_715-2" class="cls-3" d="m197.74,148.62l14.03,4.93-1.14,5.69-12.89-10.61Z"/><path id="Path_803" class="cls-3" d="m328.32,148.62l14.03,4.93-1.14,5.69-12.89-10.61Z"/><path id="Path_660-2" class="cls-3" d="m132.45,21.23l14.03,4.93-1.14,5.69-12.89-10.61Z"/><path id="Path_1169" class="cls-3" d="m132.45,191.09l14.03,4.93-1.14,5.69-12.89-10.61Z"/><path id="Path_877" class="cls-3" d="m263.03,21.23l14.03,4.93-1.14,5.69-12.89-10.61Z"/><path id="Path_992" class="cls-3" d="m263.03,191.09l14.03,4.93-1.14,5.69-12.89-10.61Z"/><path id="Path_716-2" class="cls-3" d="m132.45,106.16l14.03,4.93-1.14,5.69-12.89-10.61Z"/><path id="Path_1170" class="cls-3" d="m132.45,276.02l14.03,4.93-1.14,5.69-12.89-10.61Z"/><path id="Path_878" class="cls-3" d="m263.03,106.16l14.03,4.93-1.14,5.69-12.89-10.61Z"/><path id="Path_993" class="cls-3" d="m263.03,276.02l14.03,4.93-1.14,5.69-12.89-10.61Z"/><path id="Path_682-2" class="cls-3" d="m197.74,21.23l14.03,4.93-1.14,5.69-12.89-10.61Z"/><path id="Path_1069" class="cls-3" d="m197.74,191.09l14.03,4.93-1.14,5.69-12.89-10.61Z"/><path id="Path_804" class="cls-3" d="m328.32,21.23l14.03,4.93-1.14,5.69-12.89-10.61Z"/><path id="Path_921" class="cls-3" d="m328.32,191.09l14.03,4.93-1.14,5.69-12.89-10.61Z"/><path id="Path_717-2" class="cls-3" d="m197.74,106.16l14.03,4.93-1.14,5.69-12.89-10.61Z"/><path id="Path_1070" class="cls-3" d="m197.74,276.02l14.03,4.93-1.14,5.69-12.89-10.61Z"/><path id="Path_805" class="cls-3" d="m328.32,106.16l14.03,4.93-1.14,5.69-12.89-10.61Z"/><path id="Path_922" class="cls-3" d="m328.32,276.02l14.03,4.93-1.14,5.69-12.89-10.61Z"/><path id="Path_643-2" class="cls-3" d="m165.1,63.7l14.03,4.93-1.14,5.69-12.89-10.61Z"/><path id="Path_1171" class="cls-3" d="m165.1,233.55l14.03,4.93-1.14,5.69-12.89-10.61Z"/><path id="Path_843" class="cls-3" d="m295.67,63.7l14.03,4.93-1.14,5.69-12.89-10.61Z"/><path id="Path_947" class="cls-3" d="m295.67,233.55l14.03,4.93-1.14,5.69-12.89-10.61Z"/><path id="Path_718-2" class="cls-3" d="m165.1,148.62l14.03,4.93-1.14,5.69-12.89-10.61Z"/><path id="Path_844" class="cls-3" d="m295.67,148.62l14.03,4.93-1.14,5.69-12.89-10.61Z"/><path id="Path_673-2" class="cls-3" d="m230.38,63.7l14.03,4.93-1.14,5.69-12.89-10.61Z"/><path id="Path_1026" class="cls-3" d="m230.38,233.55l14.03,4.93-1.14,5.69-12.89-10.61Z"/><path id="Path_719-2" class="cls-3" d="m230.38,148.62l14.03,4.93-1.14,5.69-12.89-10.61Z"/><path id="Path_650-2" class="cls-3" d="m165.1,21.23l14.03,4.93-1.14,5.69-12.89-10.61Z"/><path id="Path_1173" class="cls-3" d="m165.1,191.09l14.03,4.93-1.14,5.69-12.89-10.61Z"/><path id="Path_845" class="cls-3" d="m295.67,21.23l14.03,4.93-1.14,5.69-12.89-10.61Z"/><path id="Path_948" class="cls-3" d="m295.67,191.09l14.03,4.93-1.14,5.69-12.89-10.61Z"/><path id="Path_720-2" class="cls-3" d="m165.1,106.16l14.03,4.93-1.14,5.69-12.89-10.61Z"/><path id="Path_1174" class="cls-3" d="m165.1,276.02l14.03,4.93-1.14,5.69-12.89-10.61Z"/><path id="Path_846" class="cls-3" d="m295.67,106.16l14.03,4.93-1.14,5.69-12.89-10.61Z"/><path id="Path_949" class="cls-3" d="m295.67,276.02l14.03,4.93-1.14,5.69-12.89-10.61Z"/><path id="Path_674-2" class="cls-3" d="m230.38,21.23l14.03,4.93-1.14,5.69-12.89-10.61Z"/><path id="Path_1028" class="cls-3" d="m230.38,191.09l14.03,4.93-1.14,5.69-12.89-10.61Z"/><path id="Path_698-2" class="cls-3" d="m230.38,106.16l14.03,4.93-1.14,5.69-12.89-10.61Z"/><path id="Path_1029" class="cls-3" d="m230.38,276.02l14.03,4.93-1.14,5.69-12.89-10.61Z"/><path id="Path_633-2" class="cls-3" d="m148.77,42.46l14.03,4.93-1.14,5.69-12.89-10.61Z"/><path id="Path_1175" class="cls-3" d="m148.77,212.32l14.03,4.93-1.14,5.69-12.89-10.61Z"/><path id="Path_855" class="cls-3" d="m279.35,42.46l14.03,4.93-1.14,5.69-12.89-10.61Z"/><path id="Path_965" class="cls-3" d="m279.35,212.32l14.03,4.93-1.14,5.69-12.89-10.61Z"/><path id="Path_721-2" class="cls-3" d="m148.77,127.39l14.03,4.93-1.14,5.69-12.89-10.61Z"/><path id="Path_856" class="cls-3" d="m279.35,127.39l14.03,4.93-1.14,5.69-12.89-10.61Z"/><path id="Path_683-2" class="cls-3" d="m214.06,42.46l14.03,4.93-1.14,5.69-12.89-10.61Z"/><path id="Path_1047" class="cls-3" d="m214.06,212.32l14.03,4.93-1.14,5.69-12.89-10.61Z"/><path id="Path_780" class="cls-3" d="m344.64,42.46l14.03,4.93-1.14,5.69-12.89-10.61Z"/><path id="Path_901" class="cls-3" d="m344.64,212.32l14.03,4.93-1.14,5.69-12.89-10.61Z"/><path id="Path_722-2" class="cls-3" d="m214.06,127.39l14.03,4.93-1.14,5.69-12.89-10.61Z"/><path id="Path_796" class="cls-3" d="m344.64,127.39l14.03,4.93-1.14,5.69-12.89-10.61Z"/><path id="Path_653-2" class="cls-3" d="m148.77,0l14.03,4.93-1.14,5.69-12.89-10.61Z"/><path id="Path_1177" class="cls-3" d="m148.77,169.86l14.03,4.93-1.14,5.69-12.89-10.61Z"/><path id="Path_857" class="cls-3" d="m279.35,0l14.03,4.93-1.14,5.69-12.89-10.61Z"/><path id="Path_967" class="cls-3" d="m279.35,169.86l14.03,4.93-1.14,5.69-12.89-10.61Z"/><path id="Path_723-2" class="cls-3" d="m148.77,84.93l14.03,4.93-1.14,5.69-12.89-10.61Z"/><path id="Path_1178" class="cls-3" d="m148.77,254.78l14.03,4.93-1.14,5.69-12.89-10.61Z"/><path id="Path_858" class="cls-3" d="m279.35,84.93l14.03,4.93-1.14,5.69-12.89-10.61Z"/><path id="Path_968" class="cls-3" d="m279.35,254.78l14.03,4.93-1.14,5.69-12.89-10.61Z"/><path id="Path_684-2" class="cls-3" d="m214.06,0l14.03,4.93-1.14,5.69-12.89-10.61Z"/><path id="Path_1049" class="cls-3" d="m214.06,169.86l14.03,4.93-1.14,5.69-12.89-10.61Z"/><path id="Path_781" class="cls-3" d="m344.64,0l14.03,4.93-1.14,5.69-12.89-10.61Z"/><path id="Path_902" class="cls-3" d="m344.64,169.86l14.03,4.93-1.14,5.69-12.89-10.61Z"/><path id="Path_701-2" class="cls-3" d="m214.06,84.93l14.03,4.93-1.14,5.69-12.89-10.61Z"/><path id="Path_1050" class="cls-3" d="m214.06,254.78l14.03,4.93-1.14,5.69-12.89-10.61Z"/><path id="Path_782" class="cls-3" d="m344.64,84.93l14.03,4.93-1.14,5.69-12.89-10.61Z"/><path id="Path_903" class="cls-3" d="m344.64,254.78l14.03,4.93-1.14,5.69-12.89-10.61Z"/><path id="Path_639-2" class="cls-3" d="m181.42,42.46l14.03,4.93-1.14,5.69-12.89-10.61Z"/><path id="Path_1071" class="cls-3" d="m181.42,212.32l14.03,4.93-1.14,5.69-12.89-10.61Z"/><path id="Path_819" class="cls-3" d="m312,42.46l14.03,4.93-1.14,5.69-12.89-10.61Z"/><path id="Path_923" class="cls-3" d="m312,212.32l14.03,4.93-1.14,5.69-12.89-10.61Z"/><path id="Path_724-2" class="cls-3" d="m181.42,127.39l14.03,4.93-1.14,5.69-12.89-10.61Z"/><path id="Path_820" class="cls-3" d="m312,127.39l14.03,4.93-1.14,5.69-12.89-10.61Z"/><path id="Path_663-2" class="cls-3" d="m246.71,42.46l14.03,4.93-1.14,5.69-12.89-10.61Z"/><path id="Path_995" class="cls-3" d="m246.71,212.32l14.03,4.93-1.14,5.69-12.89-10.61Z"/><path id="Path_725-2" class="cls-3" d="m246.71,127.39l14.03,4.93-1.14,5.69-12.89-10.61Z"/><path id="Path_647-2" class="cls-3" d="m181.42,0l14.03,4.93-1.14,5.69-12.89-10.61Z"/><path id="Path_1073" class="cls-3" d="m181.42,169.86l14.03,4.93-1.14,5.69-12.89-10.61Z"/><path id="Path_821" class="cls-3" d="m312,0l14.03,4.93-1.14,5.69-12.89-10.61Z"/><path id="Path_924" class="cls-3" d="m312,169.86l14.03,4.93-1.14,5.69-12.89-10.61Z"/><path id="Path_726-2" class="cls-3" d="m181.42,84.93l14.03,4.93-1.14,5.69-12.89-10.61Z"/><path id="Path_1074" class="cls-3" d="m181.42,254.78l14.03,4.93-1.14,5.69-12.89-10.61Z"/><path id="Path_822" class="cls-3" d="m312,84.93l14.03,4.93-1.14,5.69-12.89-10.61Z"/><path id="Path_925" class="cls-3" d="m312,254.78l14.03,4.93-1.14,5.69-12.89-10.61Z"/><path id="Path_664-2" class="cls-3" d="m246.71,0l14.03,4.93-1.14,5.69-12.89-10.61Z"/><path id="Path_997" class="cls-3" d="m246.71,169.86l14.03,4.93-1.14,5.69-12.89-10.61Z"/><path id="Path_695-2" class="cls-3" d="m246.71,84.93l14.03,4.93-1.14,5.69-12.89-10.61Z"/><path id="Path_998" class="cls-3" d="m246.71,254.78l14.03,4.93-1.14,5.69-12.89-10.61Z"/><path id="Path_635-2" class="cls-3" d="m148.77,63.7l14.03,4.93-1.14,5.69-12.89-10.61Z"/><path id="Path_1179" class="cls-3" d="m148.77,233.55l14.03,4.93-1.14,5.69-12.89-10.61Z"/><path id="Path_859" class="cls-3" d="m279.35,63.7l14.03,4.93-1.14,5.69-12.89-10.61Z"/><path id="Path_969" class="cls-3" d="m279.35,233.55l14.03,4.93-1.14,5.69-12.89-10.61Z"/><path id="Path_727-2" class="cls-3" d="m148.77,148.62l14.03,4.93-1.14,5.69-12.89-10.61Z"/><path id="Path_860" class="cls-3" d="m279.35,148.62l14.03,4.93-1.14,5.69-12.89-10.61Z"/><path id="Path_685-2" class="cls-3" d="m214.06,63.7l14.03,4.93-1.14,5.69-12.89-10.61Z"/><path id="Path_1051" class="cls-3" d="m214.06,233.55l14.03,4.93-1.14,5.69-12.89-10.61Z"/><path id="Path_783" class="cls-3" d="m344.64,63.7l14.03,4.93-1.14,5.69-12.89-10.61Z"/><path id="Path_904" class="cls-3" d="m344.64,233.55l14.03,4.93-1.14,5.69-12.89-10.61Z"/><path id="Path_728-2" class="cls-3" d="m214.06,148.62l14.03,4.93-1.14,5.69-12.89-10.61Z"/><path id="Path_807" class="cls-3" d="m344.64,148.62l14.03,4.93-1.14,5.69-12.89-10.61Z"/><path id="Path_654-2" class="cls-3" d="m148.77,21.23l14.03,4.93-1.14,5.69-12.89-10.61Z"/><path id="Path_1181" class="cls-3" d="m148.77,191.09l14.03,4.93-1.14,5.69-12.89-10.61Z"/><path id="Path_861" class="cls-3" d="m279.35,21.23l14.03,4.93-1.14,5.69-12.89-10.61Z"/><path id="Path_970" class="cls-3" d="m279.35,191.09l14.03,4.93-1.14,5.69-12.89-10.61Z"/><path id="Path_729-2" class="cls-3" d="m148.77,106.16l14.03,4.93-1.14,5.69-12.89-10.61Z"/><path id="Path_1182" class="cls-3" d="m148.77,276.02l14.03,4.93-1.14,5.69-12.89-10.61Z"/><path id="Path_862" class="cls-3" d="m279.35,106.16l14.03,4.93-1.14,5.69-12.89-10.61Z"/><path id="Path_971" class="cls-3" d="m279.35,276.02l14.03,4.93-1.14,5.69-12.89-10.61Z"/><path id="Path_686-2" class="cls-3" d="m214.06,21.23l14.03,4.93-1.14,5.69-12.89-10.61Z"/><path id="Path_1053" class="cls-3" d="m214.06,191.09l14.03,4.93-1.14,5.69-12.89-10.61Z"/><path id="Path_784" class="cls-3" d="m344.64,21.23l14.03,4.93-1.14,5.69-12.89-10.61Z"/><path id="Path_905" class="cls-3" d="m344.64,191.09l14.03,4.93-1.14,5.69-12.89-10.61Z"/><path id="Path_702-2" class="cls-3" d="m214.06,106.16l14.03,4.93-1.14,5.69-12.89-10.61Z"/><path id="Path_1054" class="cls-3" d="m214.06,276.02l14.03,4.93-1.14,5.69-12.89-10.61Z"/><path id="Path_785" class="cls-3" d="m344.64,106.16l14.03,4.93-1.14,5.69-12.89-10.61Z"/><path id="Path_926" class="cls-3" d="m344.64,276.02l14.03,4.93-1.14,5.69-12.89-10.61Z"/><path id="Path_641-2" class="cls-3" d="m181.42,63.7l14.03,4.93-1.14,5.69-12.89-10.61Z"/><path id="Path_1075" class="cls-3" d="m181.42,233.55l14.03,4.93-1.14,5.69-12.89-10.61Z"/><path id="Path_823" class="cls-3" d="m312,63.7l14.03,4.93-1.14,5.69-12.89-10.61Z"/><path id="Path_927" class="cls-3" d="m312,233.55l14.03,4.93-1.14,5.69-12.89-10.61Z"/><path id="Path_730-2" class="cls-3" d="m181.42,148.62l14.03,4.93-1.14,5.69-12.89-10.61Z"/><path id="Path_824" class="cls-3" d="m312,148.62l14.03,4.93-1.14,5.69-12.89-10.61Z"/><path id="Path_665-2" class="cls-3" d="m246.71,63.7l14.03,4.93-1.14,5.69-12.89-10.61Z"/><path id="Path_1002" class="cls-3" d="m246.71,233.55l14.03,4.93-1.14,5.69-12.89-10.61Z"/><path id="Path_731-2" class="cls-3" d="m246.71,148.62l14.03,4.93-1.14,5.69-12.89-10.61Z"/><path id="Path_651-2" class="cls-3" d="m181.42,21.23l14.03,4.93-1.14,5.69-12.89-10.61Z"/><path id="Path_1077" class="cls-3" d="m181.42,191.09l14.03,4.93-1.14,5.69-12.89-10.61Z"/><path id="Path_825" class="cls-3" d="m312,21.23l14.03,4.93-1.14,5.69-12.89-10.61Z"/><path id="Path_928" class="cls-3" d="m312,191.09l14.03,4.93-1.14,5.69-12.89-10.61Z"/><path id="Path_732-2" class="cls-3" d="m181.42,106.16l14.03,4.93-1.14,5.69-12.89-10.61Z"/><path id="Path_1078" class="cls-3" d="m181.42,276.02l14.03,4.93-1.14,5.69-12.89-10.61Z"/><path id="Path_826" class="cls-3" d="m312,106.16l14.03,4.93-1.14,5.69-12.89-10.61Z"/><path id="Path_929" class="cls-3" d="m312,276.02l14.03,4.93-1.14,5.69-12.89-10.61Z"/><path id="Path_666-2" class="cls-3" d="m246.71,21.23l14.03,4.93-1.14,5.69-12.89-10.61Z"/><path id="Path_1004" class="cls-3" d="m246.71,191.09l14.03,4.93-1.14,5.69-12.89-10.61Z"/><path id="Path_699-2" class="cls-3" d="m246.71,106.16l14.03,4.93-1.14,5.69-12.89-10.61Z"/><path id="Path_1005" class="cls-3" d="m246.71,276.02l14.03,4.93-1.14,5.69-12.89-10.61Z"/><path id="Path_632-2" class="cls-3" d="m132.45,53.08l14.03,4.93-1.14,5.69-12.89-10.61Z"/><path id="Path_1183" class="cls-3" d="m132.45,222.93l14.03,4.93-1.14,5.69-12.89-10.61Z"/><path id="Path_879" class="cls-3" d="m263.03,53.08l14.03,4.93-1.14,5.69-12.89-10.61Z"/><path id="Path_1006" class="cls-3" d="m263.03,222.93l14.03,4.93-1.14,5.69-12.89-10.61Z"/><path id="Path_733-2" class="cls-3" d="m132.45,138.01l14.03,4.93-1.14,5.69-12.89-10.61Z"/><path id="Path_880" class="cls-3" d="m263.03,138.01l14.03,4.93-1.14,5.69-12.89-10.61Z"/><path id="Path_687-2" class="cls-3" d="m197.74,53.08l14.03,4.93-1.14,5.69-12.89-10.61Z"/><path id="Path_1079" class="cls-3" d="m197.74,222.93l14.03,4.93-1.14,5.69-12.89-10.61Z"/><path id="Path_809" class="cls-3" d="m328.32,53.08l14.03,4.93-1.14,5.69-12.89-10.61Z"/><path id="Path_930" class="cls-3" d="m328.32,222.93l14.03,4.93-1.14,5.69-12.89-10.61Z"/><path id="Path_734-2" class="cls-3" d="m197.74,138.01l14.03,4.93-1.14,5.69-12.89-10.61Z"/><path id="Path_810" class="cls-3" d="m328.32,138.01l14.03,4.93-1.14,5.69-12.89-10.61Z"/><path id="Path_661-2" class="cls-3" d="m132.45,10.62l14.03,4.93-1.14,5.69-12.89-10.61Z"/><path id="Path_1185" class="cls-3" d="m132.45,180.47l14.03,4.93-1.14,5.69-12.89-10.61Z"/><path id="Path_881" class="cls-3" d="m263.03,10.62l14.03,4.93-1.14,5.69-12.89-10.61Z"/><path id="Path_1008" class="cls-3" d="m263.03,180.47l14.03,4.93-1.14,5.69-12.89-10.61Z"/><path id="Path_735-2" class="cls-3" d="m132.45,95.54l14.03,4.93-1.14,5.69-12.89-10.61Z"/><path id="Path_1186" class="cls-3" d="m132.45,265.4l14.03,4.93-1.14,5.69-12.89-10.61Z"/><path id="Path_882" class="cls-3" d="m263.03,95.54l14.03,4.93-1.14,5.69-12.89-10.61Z"/><path id="Path_1009" class="cls-3" d="m263.03,265.4l14.03,4.93-1.14,5.69-12.89-10.61Z"/><path id="Path_688-2" class="cls-3" d="m197.74,10.62l14.03,4.93-1.14,5.69-12.89-10.61Z"/><path id="Path_1081" class="cls-3" d="m197.74,180.47l14.03,4.93-1.14,5.69-12.89-10.61Z"/><path id="Path_811" class="cls-3" d="m328.32,10.62l14.03,4.93-1.14,5.69-12.89-10.61Z"/><path id="Path_931" class="cls-3" d="m328.32,180.47l14.03,4.93-1.14,5.69-12.89-10.61Z"/><path id="Path_736-2" class="cls-3" d="m197.74,95.54l14.03,4.93-1.14,5.69-12.89-10.61Z"/><path id="Path_1082" class="cls-3" d="m197.74,265.4l14.03,4.93-1.14,5.69-12.89-10.61Z"/><path id="Path_812" class="cls-3" d="m328.32,95.54l14.03,4.93-1.14,5.69-12.89-10.61Z"/><path id="Path_932" class="cls-3" d="m328.32,265.4l14.03,4.93-1.14,5.69-12.89-10.61Z"/><path id="Path_644-2" class="cls-3" d="m165.1,53.08l14.03,4.93-1.14,5.69-12.89-10.61Z"/><path id="Path_1187" class="cls-3" d="m165.1,222.93l14.03,4.93-1.14,5.69-12.89-10.61Z"/><path id="Path_847" class="cls-3" d="m295.67,53.08l14.03,4.93-1.14,5.69-12.89-10.61Z"/><path id="Path_952" class="cls-3" d="m295.67,222.93l14.03,4.93-1.14,5.69-12.89-10.61Z"/><path id="Path_737-2" class="cls-3" d="m165.1,138.01l14.03,4.93-1.14,5.69-12.89-10.61Z"/><path id="Path_848" class="cls-3" d="m295.67,138.01l14.03,4.93-1.14,5.69-12.89-10.61Z"/><path id="Path_675-2" class="cls-3" d="m230.38,53.08l14.03,4.93-1.14,5.69-12.89-10.61Z"/><path id="Path_1030" class="cls-3" d="m230.38,222.93l14.03,4.93-1.14,5.69-12.89-10.61Z"/><path id="Path_738-2" class="cls-3" d="m230.38,138.01l14.03,4.93-1.14,5.69-12.89-10.61Z"/><path id="Path_652-2" class="cls-3" d="m165.1,10.62l14.03,4.93-1.14,5.69-12.89-10.61Z"/><path id="Path_1189" class="cls-3" d="m165.1,180.47l14.03,4.93-1.14,5.69-12.89-10.61Z"/><path id="Path_849" class="cls-3" d="m295.67,10.62l14.03,4.93-1.14,5.69-12.89-10.61Z"/><path id="Path_953" class="cls-3" d="m295.67,180.47l14.03,4.93-1.14,5.69-12.89-10.61Z"/><path id="Path_739-2" class="cls-3" d="m165.1,95.54l14.03,4.93-1.14,5.69-12.89-10.61Z"/><path id="Path_1190" class="cls-3" d="m165.1,265.4l14.03,4.93-1.14,5.69-12.89-10.61Z"/><path id="Path_850" class="cls-3" d="m295.67,95.54l14.03,4.93-1.14,5.69-12.89-10.61Z"/><path id="Path_954" class="cls-3" d="m295.67,265.4l14.03,4.93-1.14,5.69-12.89-10.61Z"/><path id="Path_676-2" class="cls-3" d="m230.38,10.62l14.03,4.93-1.14,5.69-12.89-10.61Z"/><path id="Path_1032" class="cls-3" d="m230.38,180.47l14.03,4.93-1.14,5.69-12.89-10.61Z"/><path id="Path_700-2" class="cls-3" d="m230.38,95.54l14.03,4.93-1.14,5.69-12.89-10.61Z"/><path id="Path_1033" class="cls-3" d="m230.38,265.4l14.03,4.93-1.14,5.69-12.89-10.61Z"/><path id="Path_637-2" class="cls-3" d="m132.45,74.31l14.03,4.93-1.14,5.69-12.89-10.61Z"/><path id="Path_1191" class="cls-3" d="m132.45,244.17l14.03,4.93-1.14,5.69-12.89-10.61Z"/><path id="Path_883" class="cls-3" d="m263.03,74.31l14.03,4.93-1.14,5.69-12.89-10.61Z"/><path id="Path_1010" class="cls-3" d="m263.03,244.17l14.03,4.93-1.14,5.69-12.89-10.61Z"/><path id="Path_740-2" class="cls-3" d="m132.45,159.24l14.03,4.93-1.14,5.69-12.89-10.61Z"/><path id="Path_884" class="cls-3" d="m263.03,159.24l14.03,4.93-1.14,5.69-12.89-10.61Z"/><path id="Path_689-2" class="cls-3" d="m197.74,74.31l14.03,4.93-1.14,5.69-12.89-10.61Z"/><path id="Path_1083" class="cls-3" d="m197.74,244.17l14.03,4.93-1.14,5.69-12.89-10.61Z"/><path id="Path_814" class="cls-3" d="m328.32,74.31l14.03,4.93-1.14,5.69-12.89-10.61Z"/><path id="Path_933" class="cls-3" d="m328.32,244.17l14.03,4.93-1.14,5.69-12.89-10.61Z"/><path id="Path_741-2" class="cls-3" d="m197.74,159.24l14.03,4.93-1.14,5.69-12.89-10.61Z"/><path id="Path_827" class="cls-3" d="m328.32,159.24l14.03,4.93-1.14,5.69-12.89-10.61Z"/><path id="Path_662-2" class="cls-3" d="m132.45,31.85l14.03,4.93-1.14,5.69-12.89-10.61Z"/><path id="Path_1193" class="cls-3" d="m132.45,201.7l14.03,4.93-1.14,5.69-12.89-10.61Z"/><path id="Path_885" class="cls-3" d="m263.03,31.85l14.03,4.93-1.14,5.69-12.89-10.61Z"/><path id="Path_1011" class="cls-3" d="m263.03,201.7l14.03,4.93-1.14,5.69-12.89-10.61Z"/><path id="Path_742-2" class="cls-3" d="m132.45,116.78l14.03,4.93-1.14,5.69-12.89-10.61Z"/><path id="Path_886" class="cls-3" d="m263.03,116.78l14.03,4.93-1.14,5.69-12.89-10.61Z"/><path id="Path_690-2" class="cls-3" d="m197.74,31.85l14.03,4.93-1.14,5.69-12.89-10.61Z"/><path id="Path_1085" class="cls-3" d="m197.74,201.7l14.03,4.93-1.14,5.69-12.89-10.61Z"/><path id="Path_815" class="cls-3" d="m328.32,31.85l14.03,4.93-1.14,5.69-12.89-10.61Z"/><path id="Path_934" class="cls-3" d="m328.32,201.7l14.03,4.93-1.14,5.69-12.89-10.61Z"/><path id="Path_743-2" class="cls-3" d="m197.74,116.78l14.03,4.93-1.14,5.69-12.89-10.61Z"/><path id="Path_816" class="cls-3" d="m328.32,116.78l14.03,4.93-1.14,5.69-12.89-10.61Z"/><path id="Path_645-2" class="cls-3" d="m165.1,74.31l14.03,4.93-1.14,5.69-12.89-10.61Z"/><path id="Path_1195" class="cls-3" d="m165.1,244.17l14.03,4.93-1.14,5.69-12.89-10.61Z"/><path id="Path_851" class="cls-3" d="m295.67,74.31l14.03,4.93-1.14,5.69-12.89-10.61Z"/><path id="Path_956" class="cls-3" d="m295.67,244.17l14.03,4.93-1.14,5.69-12.89-10.61Z"/><path id="Path_744-2" class="cls-3" d="m165.1,159.24l14.03,4.93-1.14,5.69-12.89-10.61Z"/><path id="Path_852" class="cls-3" d="m295.67,159.24l14.03,4.93-1.14,5.69-12.89-10.61Z"/><path id="Path_677-2" class="cls-3" d="m230.38,74.31l14.03,4.93-1.14,5.69-12.89-10.61Z"/><path id="Path_1037" class="cls-3" d="m230.38,244.17l14.03,4.93-1.14,5.69-12.89-10.61Z"/><path id="Path_745-2" class="cls-3" d="m230.38,159.24l14.03,4.93-1.14,5.69-12.89-10.61Z"/><path id="Path_655-2" class="cls-3" d="m165.1,31.85l14.03,4.93-1.14,5.69-12.89-10.61Z"/><path id="Path_1197" class="cls-3" d="m165.1,201.7l14.03,4.93-1.14,5.69-12.89-10.61Z"/><path id="Path_853" class="cls-3" d="m295.67,31.85l14.03,4.93-1.14,5.69-12.89-10.61Z"/><path id="Path_957" class="cls-3" d="m295.67,201.7l14.03,4.93-1.14,5.69-12.89-10.61Z"/><path id="Path_746-2" class="cls-3" d="m165.1,116.78l14.03,4.93-1.14,5.69-12.89-10.61Z"/><path id="Path_854" class="cls-3" d="m295.67,116.78l14.03,4.93-1.14,5.69-12.89-10.61Z"/><path id="Path_678-2" class="cls-3" d="m230.38,31.85l14.03,4.93-1.14,5.69-12.89-10.61Z"/><path id="Path_1039" class="cls-3" d="m230.38,201.7l14.03,4.93-1.14,5.69-12.89-10.61Z"/><path id="Path_703-2" class="cls-3" d="m230.38,116.78l14.03,4.93-1.14,5.69-12.89-10.61Z"/><path id="Path_634-2" class="cls-3" d="m148.77,53.08l14.03,4.93-1.14,5.69-12.89-10.61Z"/><path id="Path_1199" class="cls-3" d="m148.77,222.93l14.03,4.93-1.14,5.69-12.89-10.61Z"/><path id="Path_863" class="cls-3" d="m279.35,53.08l14.03,4.93-1.14,5.69-12.89-10.61Z"/><path id="Path_974" class="cls-3" d="m279.35,222.93l14.03,4.93-1.14,5.69-12.89-10.61Z"/><path id="Path_747-2" class="cls-3" d="m148.77,138.01l14.03,4.93-1.14,5.69-12.89-10.61Z"/><path id="Path_864" class="cls-3" d="m279.35,138.01l14.03,4.93-1.14,5.69-12.89-10.61Z"/><path id="Path_691-2" class="cls-3" d="m214.06,53.08l14.03,4.93-1.14,5.69-12.89-10.61Z"/><path id="Path_1055" class="cls-3" d="m214.06,222.93l14.03,4.93-1.14,5.69-12.89-10.61Z"/><path id="Path_788" class="cls-3" d="m344.64,53.08l14.03,4.93-1.14,5.69-12.89-10.61Z"/><path id="Path_906" class="cls-3" d="m344.64,222.93l14.03,4.93-1.14,5.69-12.89-10.61Z"/><path id="Path_748-2" class="cls-3" d="m214.06,138.01l14.03,4.93-1.14,5.69-12.89-10.61Z"/><path id="Path_817" class="cls-3" d="m344.64,138.01l14.03,4.93-1.14,5.69-12.89-10.61Z"/><path id="Path_656-2" class="cls-3" d="m148.77,10.62l14.03,4.93-1.14,5.69-12.89-10.61Z"/><path id="Path_1201" class="cls-3" d="m148.77,180.47l14.03,4.93-1.14,5.69-12.89-10.61Z"/><path id="Path_865" class="cls-3" d="m279.35,10.62l14.03,4.93-1.14,5.69-12.89-10.61Z"/><path id="Path_977" class="cls-3" d="m279.35,180.47l14.03,4.93-1.14,5.69-12.89-10.61Z"/><path id="Path_749-2" class="cls-3" d="m148.77,95.54l14.03,4.93-1.14,5.69-12.89-10.61Z"/><path id="Path_1202" class="cls-3" d="m148.77,265.4l14.03,4.93-1.14,5.69-12.89-10.61Z"/><path id="Path_866" class="cls-3" d="m279.35,95.54l14.03,4.93-1.14,5.69-12.89-10.61Z"/><path id="Path_978" class="cls-3" d="m279.35,265.4l14.03,4.93-1.14,5.69-12.89-10.61Z"/><path id="Path_692-2" class="cls-3" d="m214.06,10.62l14.03,4.93-1.14,5.69-12.89-10.61Z"/><path id="Path_1057" class="cls-3" d="m214.06,180.47l14.03,4.93-1.14,5.69-12.89-10.61Z"/><path id="Path_789" class="cls-3" d="m344.64,10.62l14.03,4.93-1.14,5.69-12.89-10.61Z"/><path id="Path_907" class="cls-3" d="m344.64,180.47l14.03,4.93-1.14,5.69-12.89-10.61Z"/><path id="Path_704-2" class="cls-3" d="m214.06,95.54l14.03,4.93-1.14,5.69-12.89-10.61Z"/><path id="Path_1058" class="cls-3" d="m214.06,265.4l14.03,4.93-1.14,5.69-12.89-10.61Z"/><path id="Path_790" class="cls-3" d="m344.64,95.54l14.03,4.93-1.14,5.69-12.89-10.61Z"/><path id="Path_914" class="cls-3" d="m344.64,265.4l14.03,4.93-1.14,5.69-12.89-10.61Z"/><path id="Path_640-2" class="cls-3" d="m181.42,53.08l14.03,4.93-1.14,5.69-12.89-10.61Z"/><path id="Path_1087" class="cls-3" d="m181.42,222.93l14.03,4.93-1.14,5.69-12.89-10.61Z"/><path id="Path_829" class="cls-3" d="m312,53.08l14.03,4.93-1.14,5.69-12.89-10.61Z"/><path id="Path_935" class="cls-3" d="m312,222.93l14.03,4.93-1.14,5.69-12.89-10.61Z"/><path id="Path_750-2" class="cls-3" d="m181.42,138.01l14.03,4.93-1.14,5.69-12.89-10.61Z"/><path id="Path_830" class="cls-3" d="m312,138.01l14.03,4.93-1.14,5.69-12.89-10.61Z"/><path id="Path_667-2" class="cls-3" d="m246.71,53.08l14.03,4.93-1.14,5.69-12.89-10.61Z"/><path id="Path_1013" class="cls-3" d="m246.71,222.93l14.03,4.93-1.14,5.69-12.89-10.61Z"/><path id="Path_751-2" class="cls-3" d="m246.71,138.01l14.03,4.93-1.14,5.69-12.89-10.61Z"/><path id="Path_648-2" class="cls-3" d="m181.42,10.62l14.03,4.93-1.14,5.69-12.89-10.61Z"/><path id="Path_1089" class="cls-3" d="m181.42,180.47l14.03,4.93-1.14,5.69-12.89-10.61Z"/><path id="Path_831" class="cls-3" d="m312,10.62l14.03,4.93-1.14,5.69-12.89-10.61Z"/><path id="Path_936" class="cls-3" d="m312,180.47l14.03,4.93-1.14,5.69-12.89-10.61Z"/><path id="Path_752-2" class="cls-3" d="m181.42,95.54l14.03,4.93-1.14,5.69-12.89-10.61Z"/><path id="Path_1090" class="cls-3" d="m181.42,265.4l14.03,4.93-1.14,5.69-12.89-10.61Z"/><path id="Path_832" class="cls-3" d="m312,95.54l14.03,4.93-1.14,5.69-12.89-10.61Z"/><path id="Path_937" class="cls-3" d="m312,265.4l14.03,4.93-1.14,5.69-12.89-10.61Z"/><path id="Path_668-2" class="cls-3" d="m246.71,10.62l14.03,4.93-1.14,5.69-12.89-10.61Z"/><path id="Path_1015" class="cls-3" d="m246.71,180.47l14.03,4.93-1.14,5.69-12.89-10.61Z"/><path id="Path_696-2" class="cls-3" d="m246.71,95.54l14.03,4.93-1.14,5.69-12.89-10.61Z"/><path id="Path_1016" class="cls-3" d="m246.71,265.4l14.03,4.93-1.14,5.69-12.89-10.61Z"/><path id="Path_638-2" class="cls-3" d="m148.77,74.31l14.03,4.93-1.14,5.69-12.89-10.61Z"/><path id="Path_1203" class="cls-3" d="m148.77,244.17l14.03,4.93-1.14,5.69-12.89-10.61Z"/><path id="Path_867" class="cls-3" d="m279.35,74.31l14.03,4.93-1.14,5.69-12.89-10.61Z"/><path id="Path_980" class="cls-3" d="m279.35,244.17l14.03,4.93-1.14,5.69-12.89-10.61Z"/><path id="Path_753-2" class="cls-3" d="m148.77,159.24l14.03,4.93-1.14,5.69-12.89-10.61Z"/><path id="Path_868" class="cls-3" d="m279.35,159.24l14.03,4.93-1.14,5.69-12.89-10.61Z"/><path id="Path_693-2" class="cls-3" d="m214.06,74.31l14.03,4.93-1.14,5.69-12.89-10.61Z"/><path id="Path_1059" class="cls-3" d="m214.06,244.17l14.03,4.93-1.14,5.69-12.89-10.61Z"/><path id="Path_791" class="cls-3" d="m344.64,74.31l14.03,4.93-1.14,5.69-12.89-10.61Z"/><path id="Path_908" class="cls-3" d="m344.64,244.17l14.03,4.93-1.14,5.69-12.89-10.61Z"/><path id="Path_754-2" class="cls-3" d="m214.06,159.24l14.03,4.93-1.14,5.69-12.89-10.61Z"/><path id="Path_833" class="cls-3" d="m344.64,159.24l14.03,4.93-1.14,5.69-12.89-10.61Z"/><path id="Path_657-2" class="cls-3" d="m148.77,31.85l14.03,4.93-1.14,5.69-12.89-10.61Z"/><path id="Path_1205" class="cls-3" d="m148.77,201.7l14.03,4.93-1.14,5.69-12.89-10.61Z"/><path id="Path_869" class="cls-3" d="m279.35,31.85l14.03,4.93-1.14,5.69-12.89-10.61Z"/><path id="Path_981" class="cls-3" d="m279.35,201.7l14.03,4.93-1.14,5.69-12.89-10.61Z"/><path id="Path_755-2" class="cls-3" d="m148.77,116.78l14.03,4.93-1.14,5.69-12.89-10.61Z"/><path id="Path_870" class="cls-3" d="m279.35,116.78l14.03,4.93-1.14,5.69-12.89-10.61Z"/><path id="Path_694-2" class="cls-3" d="m214.06,31.85l14.03,4.93-1.14,5.69-12.89-10.61Z"/><path id="Path_1061" class="cls-3" d="m214.06,201.7l14.03,4.93-1.14,5.69-12.89-10.61Z"/><path id="Path_792" class="cls-3" d="m344.64,31.85l14.03,4.93-1.14,5.69-12.89-10.61Z"/><path id="Path_909" class="cls-3" d="m344.64,201.7l14.03,4.93-1.14,5.69-12.89-10.61Z"/><path id="Path_705-2" class="cls-3" d="m214.06,116.78l14.03,4.93-1.14,5.69-12.89-10.61Z"/><path id="Path_793" class="cls-3" d="m344.64,116.78l14.03,4.93-1.14,5.69-12.89-10.61Z"/><path id="Path_646-2" class="cls-3" d="m181.42,74.31l14.03,4.93-1.14,5.69-12.89-10.61Z"/><path id="Path_1091" class="cls-3" d="m181.42,244.17l14.03,4.93-1.14,5.69-12.89-10.61Z"/><path id="Path_834" class="cls-3" d="m312,74.31l14.03,4.93-1.14,5.69-12.89-10.61Z"/><path id="Path_938" class="cls-3" d="m312,244.17l14.03,4.93-1.14,5.69-12.89-10.61Z"/><path id="Path_756-2" class="cls-3" d="m181.42,159.24l14.03,4.93-1.14,5.69-12.89-10.61Z"/><path id="Path_835" class="cls-3" d="m312,159.24l14.03,4.93-1.14,5.69-12.89-10.61Z"/><path id="Path_669-2" class="cls-3" d="m246.71,74.31l14.03,4.93-1.14,5.69-12.89-10.61Z"/><path id="Path_1017" class="cls-3" d="m246.71,244.17l14.03,4.93-1.14,5.69-12.89-10.61Z"/><path id="Path_757-2" class="cls-3" d="m246.71,159.24l14.03,4.93-1.14,5.69-12.89-10.61Z"/><path id="Path_658-2" class="cls-3" d="m181.42,31.85l14.03,4.93-1.14,5.69-12.89-10.61Z"/><path id="Path_1093" class="cls-3" d="m181.42,201.7l14.03,4.93-1.14,5.69-12.89-10.61Z"/><path id="Path_837" class="cls-3" d="m312,31.85l14.03,4.93-1.14,5.69-12.89-10.61Z"/><path id="Path_939" class="cls-3" d="m312,201.7l14.03,4.93-1.14,5.69-12.89-10.61Z"/><path id="Path_758-2" class="cls-3" d="m181.42,116.78l14.03,4.93-1.14,5.69-12.89-10.61Z"/><path id="Path_838" class="cls-3" d="m312,116.78l14.03,4.93-1.14,5.69-12.89-10.61Z"/><path id="Path_670-2" class="cls-3" d="m246.71,31.85l14.03,4.93-1.14,5.69-12.89-10.61Z"/><path id="Path_1018" class="cls-3" d="m246.71,201.7l14.03,4.93-1.14,5.69-12.89-10.61Z"/><path id="Path_706-2" class="cls-3" d="m246.71,116.78l14.03,4.93-1.14,5.69-12.89-10.61Z"/><path id="Path_767" class="cls-3" d="m360.96,42.46l14.03,4.93-1.14,5.69-12.89-10.61Z"/><path id="Path_893" class="cls-3" d="m360.96,212.32l14.03,4.93-1.14,5.69-12.89-10.61Z"/><path id="Path_795" class="cls-3" d="m360.96,127.39l14.03,4.93-1.14,5.69-12.89-10.61Z"/><path id="Path_961" class="cls-3" d="m360.96,297.25l14.03,4.93-1.14,5.69-12.89-10.61Z"/><path id="Path_768" class="cls-3" d="m360.96,0l14.03,4.93-1.14,5.69-12.89-10.61Z"/><path id="Path_894" class="cls-3" d="m360.96,169.86l14.03,4.93-1.14,5.69-12.89-10.61Z"/><path id="Path_769" class="cls-3" d="m360.96,84.93l14.03,4.93-1.14,5.69-12.89-10.61Z"/><path id="Path_910" class="cls-3" d="m360.96,254.78l14.03,4.93-1.14,5.69-12.89-10.61Z"/><path id="Path_770" class="cls-3" d="m360.96,63.7l14.03,4.93-1.14,5.69-12.89-10.61Z"/><path id="Path_895" class="cls-3" d="m360.96,233.55l14.03,4.93-1.14,5.69-12.89-10.61Z"/><path id="Path_806" class="cls-3" d="m360.96,148.62l14.03,4.93-1.14,5.69-12.89-10.61Z"/><path id="Path_1020" class="cls-3" d="m360.96,318.48l14.03,4.93-1.14,5.69-12.89-10.61Z"/><path id="Path_771" class="cls-3" d="m360.96,21.23l14.03,4.93-1.14,5.69-12.89-10.61Z"/><path id="Path_896" class="cls-3" d="m360.96,191.09l14.03,4.93-1.14,5.69-12.89-10.61Z"/><path id="Path_779" class="cls-3" d="m360.96,106.16l14.03,4.93-1.14,5.69-12.89-10.61Z"/><path id="Path_940" class="cls-3" d="m360.96,276.02l14.03,4.93-1.14,5.69-12.89-10.61Z"/><path id="Path_759" class="cls-3" d="m377.29,42.46l14.03,4.93-1.14,5.69-12.89-10.61Z"/><path id="Path_887" class="cls-3" d="m377.29,212.32l14.03,4.93-1.14,5.69-12.89-10.61Z"/><path id="Path_797" class="cls-3" d="m377.29,127.39l14.03,4.93-1.14,5.69-12.89-10.61Z"/><path id="Path_962" class="cls-3" d="m377.29,297.25l14.03,4.93-1.14,5.69-12.89-10.61Z"/><path id="Path_760" class="cls-3" d="m377.29,0l14.03,4.93-1.14,5.69-12.89-10.61Z"/><path id="Path_888" class="cls-3" d="m377.29,169.86l14.03,4.93-1.14,5.69-12.89-10.61Z"/><path id="Path_772" class="cls-3" d="m377.29,84.93l14.03,4.93-1.14,5.69-12.89-10.61Z"/><path id="Path_911" class="cls-3" d="m377.29,254.78l14.03,4.93-1.14,5.69-12.89-10.61Z"/><path id="Path_765" class="cls-3" d="m377.29,63.7l14.03,4.93-1.14,5.69-12.89-10.61Z"/><path id="Path_897" class="cls-3" d="m377.29,233.55l14.03,4.93-1.14,5.69-12.89-10.61Z"/><path id="Path_808" class="cls-3" d="m377.29,148.62l14.03,4.93-1.14,5.69-12.89-10.61Z"/><path id="Path_1021" class="cls-3" d="m377.29,318.48l14.03,4.93-1.14,5.69-12.89-10.61Z"/><path id="Path_761" class="cls-3" d="m377.29,21.23l14.03,4.93-1.14,5.69-12.89-10.61Z"/><path id="Path_889" class="cls-3" d="m377.29,191.09l14.03,4.93-1.14,5.69-12.89-10.61Z"/><path id="Path_786" class="cls-3" d="m377.29,106.16l14.03,4.93-1.14,5.69-12.89-10.61Z"/><path id="Path_941" class="cls-3" d="m377.29,276.02l14.03,4.93-1.14,5.69-12.89-10.61Z"/><path id="Path_773" class="cls-3" d="m360.96,53.08l14.03,4.93-1.14,5.69-12.89-10.61Z"/><path id="Path_898" class="cls-3" d="m360.96,222.93l14.03,4.93-1.14,5.69-12.89-10.61Z"/><path id="Path_813" class="cls-3" d="m360.96,138.01l14.03,4.93-1.14,5.69-12.89-10.61Z"/><path id="Path_983" class="cls-3" d="m360.96,307.86l14.03,4.93-1.14,5.69-12.89-10.61Z"/><path id="Path_774" class="cls-3" d="m360.96,10.62l14.03,4.93-1.14,5.69-12.89-10.61Z"/><path id="Path_899" class="cls-3" d="m360.96,180.47l14.03,4.93-1.14,5.69-12.89-10.61Z"/><path id="Path_775" class="cls-3" d="m360.96,95.54l14.03,4.93-1.14,5.69-12.89-10.61Z"/><path id="Path_915" class="cls-3" d="m360.96,265.4l14.03,4.93-1.14,5.69-12.89-10.61Z"/><path id="Path_776" class="cls-3" d="m360.96,74.31l14.03,4.93-1.14,5.69-12.89-10.61Z"/><path id="Path_912" class="cls-3" d="m360.96,244.17l14.03,4.93-1.14,5.69-12.89-10.61Z"/><path id="Path_828" class="cls-3" d="m360.96,159.24l14.03,4.93-1.14,5.69-12.89-10.61Z"/><path id="Path_1045" class="cls-3" d="m360.96,329.1l14.03,4.93-1.14,5.69-12.89-10.61Z"/><path id="Path_777" class="cls-3" d="m360.96,31.85l14.03,4.93-1.14,5.69-12.89-10.61Z"/><path id="Path_900" class="cls-3" d="m360.96,201.7l14.03,4.93-1.14,5.69-12.89-10.61Z"/><path id="Path_787" class="cls-3" d="m360.96,116.78l14.03,4.93-1.14,5.69-12.89-10.61Z"/><path id="Path_963" class="cls-3" d="m360.96,286.63l14.03,4.93-1.14,5.69-12.89-10.61Z"/><path id="Path_762" class="cls-3" d="m377.29,53.08l14.03,4.93-1.14,5.69-12.89-10.61Z"/><path id="Path_890" class="cls-3" d="m377.29,222.93l14.03,4.93-1.14,5.69-12.89-10.61Z"/><path id="Path_818" class="cls-3" d="m377.29,138.01l14.03,4.93-1.14,5.69-12.89-10.61Z"/><path id="Path_984" class="cls-3" d="m377.29,307.86l14.03,4.93-1.14,5.69-12.89-10.61Z"/><path id="Path_763" class="cls-3" d="m377.29,10.62l14.03,4.93-1.14,5.69-12.89-10.61Z"/><path id="Path_891" class="cls-3" d="m377.29,180.47l14.03,4.93-1.14,5.69-12.89-10.61Z"/><path id="Path_778" class="cls-3" d="m377.29,95.54l14.03,4.93-1.14,5.69-12.89-10.61Z"/><path id="Path_916" class="cls-3" d="m377.29,265.4l14.03,4.93-1.14,5.69-12.89-10.61Z"/><path id="Path_766" class="cls-3" d="m377.29,74.31l14.03,4.93-1.14,5.69-12.89-10.61Z"/><path id="Path_913" class="cls-3" d="m377.29,244.17l14.03,4.93-1.14,5.69-12.89-10.61Z"/><path id="Path_836" class="cls-3" d="m377.29,159.24l14.03,4.93-1.14,5.69-12.89-10.61Z"/><path id="Path_1046" class="cls-3" d="m377.29,329.1l14.03,4.93-1.14,5.69-12.89-10.61Z"/><path id="Path_764" class="cls-3" d="m377.29,31.85l14.03,4.93-1.14,5.69-12.89-10.61Z"/><path id="Path_892" class="cls-3" d="m377.29,201.7l14.03,4.93-1.14,5.69-12.89-10.61Z"/><path id="Path_794" class="cls-3" d="m377.29,116.78l14.03,4.93-1.14,5.69-12.89-10.61Z"/><path id="Path_964" class="cls-3" d="m377.29,286.63l14.03,4.93-1.14,5.69-12.89-10.61Z"/><path id="Path_1256" class="cls-3" d="m1.87,297.25l14.03,4.93-1.14,5.69-12.89-10.61Z"/><path id="Path_1096" class="cls-3" d="m67.16,297.25l14.03,4.93-1.14,5.69-12.89-10.61Z"/><path id="Path_1224" class="cls-3" d="m34.52,297.25l14.03,4.93-1.14,5.69-12.89-10.61Z"/><path id="Path_1100" class="cls-3" d="m99.81,297.25l14.03,4.93-1.14,5.69-12.89-10.61Z"/><path id="Path_1260" class="cls-3" d="m1.87,318.48l14.03,4.93-1.14,5.69-12.89-10.61Z"/><path id="Path_1104" class="cls-3" d="m67.16,318.48l14.03,4.93-1.14,5.69-12.89-10.61Z"/><path id="Path_1228" class="cls-3" d="m34.52,318.48l14.03,4.93-1.14,5.69-12.89-10.61Z"/><path id="Path_1108" class="cls-3" d="m99.81,318.48l14.03,4.93-1.14,5.69-12.89-10.61Z"/><path id="Path_1240" class="cls-3" d="m18.19,297.25l14.03,4.93-1.14,5.69-12.89-10.61Z"/><path id="Path_1112" class="cls-3" d="m83.48,297.25l14.03,4.93-1.14,5.69-12.89-10.61Z"/><path id="Path_1208" class="cls-3" d="m50.84,297.25l14.03,4.93-1.14,5.69-12.89-10.61Z"/><path id="Path_1116" class="cls-3" d="m116.13,297.25l14.03,4.93-1.14,5.69-12.89-10.61Z"/><path id="Path_1244" class="cls-3" d="m18.19,318.48l14.03,4.93-1.14,5.69-12.89-10.61Z"/><path id="Path_1120" class="cls-3" d="m83.48,318.48l14.03,4.93-1.14,5.69-12.89-10.61Z"/><path id="Path_1212" class="cls-3" d="m50.84,318.48l14.03,4.93-1.14,5.69-12.89-10.61Z"/><path id="Path_1124" class="cls-3" d="m116.13,318.48l14.03,4.93-1.14,5.69-12.89-10.61Z"/><path id="Path_1264" class="cls-3" d="m1.87,307.86l14.03,4.93-1.14,5.69-12.89-10.61Z"/><path id="Path_1128" class="cls-3" d="m67.16,307.86l14.03,4.93-1.14,5.69-12.89-10.61Z"/><path id="Path_1232" class="cls-3" d="m34.52,307.86l14.03,4.93-1.14,5.69-12.89-10.61Z"/><path id="Path_1132" class="cls-3" d="m99.81,307.86l14.03,4.93-1.14,5.69-12.89-10.61Z"/><path id="Path_1268" class="cls-3" d="m1.87,329.1l14.03,4.93-1.14,5.69-12.89-10.61Z"/><path id="Path_1136" class="cls-3" d="m67.16,329.1l14.03,4.93-1.14,5.69-12.89-10.61Z"/><path id="Path_1270" class="cls-3" d="m1.87,286.63l14.03,4.93-1.14,5.69-12.89-10.61Z"/><path id="Path_1138" class="cls-3" d="m67.16,286.63l14.03,4.93-1.14,5.69-12.89-10.61Z"/><path id="Path_1236" class="cls-3" d="m34.52,329.1l14.03,4.93-1.14,5.69-12.89-10.61Z"/><path id="Path_1140" class="cls-3" d="m99.81,329.1l14.03,4.93-1.14,5.69-12.89-10.61Z"/><path id="Path_1238" class="cls-3" d="m34.52,286.63l14.03,4.93-1.14,5.69-12.89-10.61Z"/><path id="Path_1142" class="cls-3" d="m99.81,286.63l14.03,4.93-1.14,5.69-12.89-10.61Z"/><path id="Path_1248" class="cls-3" d="m18.19,307.86l14.03,4.93-1.14,5.69-12.89-10.61Z"/><path id="Path_1144" class="cls-3" d="m83.48,307.86l14.03,4.93-1.14,5.69-12.89-10.61Z"/><path id="Path_1216" class="cls-3" d="m50.84,307.86l14.03,4.93-1.14,5.69-12.89-10.61Z"/><path id="Path_1148" class="cls-3" d="m116.13,307.86l14.03,4.93-1.14,5.69-12.89-10.61Z"/><path id="Path_1252" class="cls-3" d="m18.19,329.1l14.03,4.93-1.14,5.69-12.89-10.61Z"/><path id="Path_1152" class="cls-3" d="m83.48,329.1l14.03,4.93-1.14,5.69-12.89-10.61Z"/><path id="Path_1254" class="cls-3" d="m18.19,286.63l14.03,4.93-1.14,5.69-12.89-10.61Z"/><path id="Path_1154" class="cls-3" d="m83.48,286.63l14.03,4.93-1.14,5.69-12.89-10.61Z"/><path id="Path_1220" class="cls-3" d="m50.84,329.1l14.03,4.93-1.14,5.69-12.89-10.61Z"/><path id="Path_1156" class="cls-3" d="m116.13,329.1l14.03,4.93-1.14,5.69-12.89-10.61Z"/><path id="Path_1222" class="cls-3" d="m50.84,286.63l14.03,4.93-1.14,5.69-12.89-10.61Z"/><path id="Path_1158" class="cls-3" d="m116.13,286.63l14.03,4.93-1.14,5.69-12.89-10.61Z"/><path id="Path_1160" class="cls-3" d="m132.45,297.25l14.03,4.93-1.14,5.69-12.89-10.61Z"/><path id="Path_986" class="cls-3" d="m263.03,297.25l14.03,4.93-1.14,5.69-12.89-10.61Z"/><path id="Path_1064" class="cls-3" d="m197.74,297.25l14.03,4.93-1.14,5.69-12.89-10.61Z"/><path id="Path_942" class="cls-3" d="m328.32,297.25l14.03,4.93-1.14,5.69-12.89-10.61Z"/><path id="Path_1164" class="cls-3" d="m165.1,297.25l14.03,4.93-1.14,5.69-12.89-10.61Z"/><path id="Path_944" class="cls-3" d="m295.67,297.25l14.03,4.93-1.14,5.69-12.89-10.61Z"/><path id="Path_1023" class="cls-3" d="m230.38,297.25l14.03,4.93-1.14,5.69-12.89-10.61Z"/><path id="Path_1168" class="cls-3" d="m132.45,318.48l14.03,4.93-1.14,5.69-12.89-10.61Z"/><path id="Path_990" class="cls-3" d="m263.03,318.48l14.03,4.93-1.14,5.69-12.89-10.61Z"/><path id="Path_1068" class="cls-3" d="m197.74,318.48l14.03,4.93-1.14,5.69-12.89-10.61Z"/><path id="Path_991" class="cls-3" d="m328.32,318.48l14.03,4.93-1.14,5.69-12.89-10.61Z"/><path id="Path_1172" class="cls-3" d="m165.1,318.48l14.03,4.93-1.14,5.69-12.89-10.61Z"/><path id="Path_994" class="cls-3" d="m295.67,318.48l14.03,4.93-1.14,5.69-12.89-10.61Z"/><path id="Path_1027" class="cls-3" d="m230.38,318.48l14.03,4.93-1.14,5.69-12.89-10.61Z"/><path id="Path_1176" class="cls-3" d="m148.77,297.25l14.03,4.93-1.14,5.69-12.89-10.61Z"/><path id="Path_966" class="cls-3" d="m279.35,297.25l14.03,4.93-1.14,5.69-12.89-10.61Z"/><path id="Path_1048" class="cls-3" d="m214.06,297.25l14.03,4.93-1.14,5.69-12.89-10.61Z"/><path id="Path_950" class="cls-3" d="m344.64,297.25l14.03,4.93-1.14,5.69-12.89-10.61Z"/><path id="Path_1072" class="cls-3" d="m181.42,297.25l14.03,4.93-1.14,5.69-12.89-10.61Z"/><path id="Path_951" class="cls-3" d="m312,297.25l14.03,4.93-1.14,5.69-12.89-10.61Z"/><path id="Path_996" class="cls-3" d="m246.71,297.25l14.03,4.93-1.14,5.69-12.89-10.61Z"/><path id="Path_1180" class="cls-3" d="m148.77,318.48l14.03,4.93-1.14,5.69-12.89-10.61Z"/><path id="Path_999" class="cls-3" d="m279.35,318.48l14.03,4.93-1.14,5.69-12.89-10.61Z"/><path id="Path_1052" class="cls-3" d="m214.06,318.48l14.03,4.93-1.14,5.69-12.89-10.61Z"/><path id="Path_1000" class="cls-3" d="m344.64,318.48l14.03,4.93-1.14,5.69-12.89-10.61Z"/><path id="Path_1076" class="cls-3" d="m181.42,318.48l14.03,4.93-1.14,5.69-12.89-10.61Z"/><path id="Path_1001" class="cls-3" d="m312,318.48l14.03,4.93-1.14,5.69-12.89-10.61Z"/><path id="Path_1003" class="cls-3" d="m246.71,318.48l14.03,4.93-1.14,5.69-12.89-10.61Z"/><path id="Path_1184" class="cls-3" d="m132.45,307.86l14.03,4.93-1.14,5.69-12.89-10.61Z"/><path id="Path_1007" class="cls-3" d="m263.03,307.86l14.03,4.93-1.14,5.69-12.89-10.61Z"/><path id="Path_1080" class="cls-3" d="m197.74,307.86l14.03,4.93-1.14,5.69-12.89-10.61Z"/><path id="Path_972" class="cls-3" d="m328.32,307.86l14.03,4.93-1.14,5.69-12.89-10.61Z"/><path id="Path_1188" class="cls-3" d="m165.1,307.86l14.03,4.93-1.14,5.69-12.89-10.61Z"/><path id="Path_973" class="cls-3" d="m295.67,307.86l14.03,4.93-1.14,5.69-12.89-10.61Z"/><path id="Path_1031" class="cls-3" d="m230.38,307.86l14.03,4.93-1.14,5.69-12.89-10.61Z"/><path id="Path_1192" class="cls-3" d="m132.45,329.1l14.03,4.93-1.14,5.69-12.89-10.61Z"/><path id="Path_1034" class="cls-3" d="m263.03,329.1l14.03,4.93-1.14,5.69-12.89-10.61Z"/><path id="Path_1084" class="cls-3" d="m197.74,329.1l14.03,4.93-1.14,5.69-12.89-10.61Z"/><path id="Path_1035" class="cls-3" d="m328.32,329.1l14.03,4.93-1.14,5.69-12.89-10.61Z"/><path id="Path_1194" class="cls-3" d="m132.45,286.63l14.03,4.93-1.14,5.69-12.89-10.61Z"/><path id="Path_1012" class="cls-3" d="m263.03,286.63l14.03,4.93-1.14,5.69-12.89-10.61Z"/><path id="Path_1086" class="cls-3" d="m197.74,286.63l14.03,4.93-1.14,5.69-12.89-10.61Z"/><path id="Path_955" class="cls-3" d="m328.32,286.63l14.03,4.93-1.14,5.69-12.89-10.61Z"/><path id="Path_1196" class="cls-3" d="m165.1,329.1l14.03,4.93-1.14,5.69-12.89-10.61Z"/><path id="Path_1036" class="cls-3" d="m295.67,329.1l14.03,4.93-1.14,5.69-12.89-10.61Z"/><path id="Path_1038" class="cls-3" d="m230.38,329.1l14.03,4.93-1.14,5.69-12.89-10.61Z"/><path id="Path_1198" class="cls-3" d="m165.1,286.63l14.03,4.93-1.14,5.69-12.89-10.61Z"/><path id="Path_958" class="cls-3" d="m295.67,286.63l14.03,4.93-1.14,5.69-12.89-10.61Z"/><path id="Path_1040" class="cls-3" d="m230.38,286.63l14.03,4.93-1.14,5.69-12.89-10.61Z"/><path id="Path_1200" class="cls-3" d="m148.77,307.86l14.03,4.93-1.14,5.69-12.89-10.61Z"/><path id="Path_975" class="cls-3" d="m279.35,307.86l14.03,4.93-1.14,5.69-12.89-10.61Z"/><path id="Path_1056" class="cls-3" d="m214.06,307.86l14.03,4.93-1.14,5.69-12.89-10.61Z"/><path id="Path_976" class="cls-3" d="m344.64,307.86l14.03,4.93-1.14,5.69-12.89-10.61Z"/><path id="Path_1088" class="cls-3" d="m181.42,307.86l14.03,4.93-1.14,5.69-12.89-10.61Z"/><path id="Path_979" class="cls-3" d="m312,307.86l14.03,4.93-1.14,5.69-12.89-10.61Z"/><path id="Path_1014" class="cls-3" d="m246.71,307.86l14.03,4.93-1.14,5.69-12.89-10.61Z"/><path id="Path_1204" class="cls-3" d="m148.77,329.1l14.03,4.93-1.14,5.69-12.89-10.61Z"/><path id="Path_1041" class="cls-3" d="m279.35,329.1l14.03,4.93-1.14,5.69-12.89-10.61Z"/><path id="Path_1060" class="cls-3" d="m214.06,329.1l14.03,4.93-1.14,5.69-12.89-10.61Z"/><path id="Path_1042" class="cls-3" d="m344.64,329.1l14.03,4.93-1.14,5.69-12.89-10.61Z"/><path id="Path_1206" class="cls-3" d="m148.77,286.63l14.03,4.93-1.14,5.69-12.89-10.61Z"/><path id="Path_982" class="cls-3" d="m279.35,286.63l14.03,4.93-1.14,5.69-12.89-10.61Z"/><path id="Path_1062" class="cls-3" d="m214.06,286.63l14.03,4.93-1.14,5.69-12.89-10.61Z"/><path id="Path_959" class="cls-3" d="m344.64,286.63l14.03,4.93-1.14,5.69-12.89-10.61Z"/><path id="Path_1092" class="cls-3" d="m181.42,329.1l14.03,4.93-1.14,5.69-12.89-10.61Z"/><path id="Path_1043" class="cls-3" d="m312,329.1l14.03,4.93-1.14,5.69-12.89-10.61Z"/><path id="Path_1044" class="cls-3" d="m246.71,329.1l14.03,4.93-1.14,5.69-12.89-10.61Z"/><path id="Path_1094" class="cls-3" d="m181.42,286.63l14.03,4.93-1.14,5.69-12.89-10.61Z"/><path id="Path_960" class="cls-3" d="m312,286.63l14.03,4.93-1.14,5.69-12.89-10.61Z"/><path id="Path_1019" class="cls-3" d="m246.71,286.63l14.03,4.93-1.14,5.69-12.89-10.61Z"/></pattern></defs><g id="Layer_1-2"><rect class="cls-2" width="4094.25" height="1588.91"/></g></svg>