<svg id="Group_255" data-name="Group 255" xmlns="http://www.w3.org/2000/svg" width="169" height="169" viewBox="0 0 169 169">
  <path id="Path_707" data-name="Path 707" d="M0,0H169V169L84.156,85.459Z" transform="translate(169) rotate(90)" fill="#b9262c"/>
  <path id="arrow-up-right-from-square-solid" d="M23.45,0a2.345,2.345,0,1,0,0,4.69h6.06L14.759,19.449a2.347,2.347,0,0,0,3.32,3.32L32.831,8.01v6.06a2.345,2.345,0,0,0,4.69,0V2.345A2.343,2.343,0,0,0,35.176,0ZM5.863,2.345A5.861,5.861,0,0,0,0,8.208v23.45a5.861,5.861,0,0,0,5.863,5.863h23.45a5.861,5.861,0,0,0,5.863-5.863V23.45a2.345,2.345,0,1,0-4.69,0v8.208a1.176,1.176,0,0,1-1.173,1.173H5.863A1.176,1.176,0,0,1,4.69,31.658V8.208A1.176,1.176,0,0,1,5.863,7.035H14.07a2.345,2.345,0,0,0,0-4.69Z" transform="translate(108.196 106.578)" fill="#fff"/>
</svg>
