<svg xmlns="http://www.w3.org/2000/svg" xmlns:xlink="http://www.w3.org/1999/xlink" width="42" height="42" viewBox="0 0 42 42">
  <defs>
    <clipPath id="clip-path">
      <rect id="Rectangle_229" data-name="Rectangle 229" width="27.565" height="20.722" fill="#b9262c"/>
    </clipPath>
  </defs>
  <g id="utilities-emergency-response-icon" transform="translate(-2129 -7892)">
    <g id="Ellipse_63" data-name="Ellipse 63" transform="translate(2129 7892)" fill="#fff" stroke="#b9262c" stroke-width="1">
      <circle cx="21" cy="21" r="21" stroke="none"/>
      <circle cx="21" cy="21" r="20.5" fill="none"/>
    </g>
    <g id="Group_363" data-name="Group 363" transform="translate(2136.283 7901.572)">
      <g id="Group_362" data-name="Group 362" clip-path="url(#clip-path)">
        <path id="Path_833" data-name="Path 833" d="M81.315,225.506a.51.51,0,1,0,0-1.02H76.143a.51.51,0,1,0,0,1.02Z" transform="translate(-73.422 -217.925)" fill="#b9262c"/>
        <path id="Path_834" data-name="Path 834" d="M64.9,544.309a.51.51,0,0,0-.51-.51H58.694a.51.51,0,1,0,0,1.02h5.694a.51.51,0,0,0,.51-.51" transform="translate(-56.483 -527.905)" fill="#b9262c"/>
        <path id="Path_835" data-name="Path 835" d="M25.078,5.116l.422-.422.162.162a.531.531,0,0,0,.75-.75L25.235,2.928a.531.531,0,0,0-.75,0h0a.531.531,0,0,0,0,.75l.162.162-.447.447a9.24,9.24,0,0,0-5.093-2.094V1.438h.31a.719.719,0,1,0,0-1.438H17.162a.719.719,0,1,0,0,1.438h.31v.755a9.225,9.225,0,0,0-3.9,1.245H.51a.51.51,0,0,0,0,1.02H12.167a9.272,9.272,0,0,0-3,5.221H4.652a.51.51,0,1,0,0,1.02H9.031Q9,11.065,9,11.44a9.356,9.356,0,0,0,.1,1.35H4.45a.51.51,0,1,0,0,1.02H9.307a9.3,9.3,0,0,0,3.853,5.371l-6.125,0h0a.51.51,0,0,0,0,1.02l8.177,0A9.283,9.283,0,0,0,25.078,5.116M18.283,19.74a8.3,8.3,0,1,1,8.3-8.3,8.3,8.3,0,0,1-8.3,8.3" fill="#b9262c"/>
        <path id="Path_836" data-name="Path 836" d="M27.68,331.652a.51.51,0,0,0-.51-.51H25.692a.51.51,0,0,0,0,1.02H27.17a.51.51,0,0,0,.51-.51" transform="translate(-24.446 -321.463)" fill="#b9262c"/>
        <path id="Path_837" data-name="Path 837" d="M610.791,147.02a.444.444,0,0,0,.444-.444v-1.667a.444.444,0,0,0-.888,0v1.667a.444.444,0,0,0,.444.444" transform="translate(-592.508 -140.243)" fill="#b9262c"/>
        <path id="Path_838" data-name="Path 838" d="M381.171,376.641a.444.444,0,0,0-.444-.444H379.06a.444.444,0,0,0,0,.888h1.667a.444.444,0,0,0,.444-.444" transform="translate(-367.55 -365.201)" fill="#b9262c"/>
        <path id="Path_839" data-name="Path 839" d="M610.791,550.909a.444.444,0,0,0-.444.444v1.667a.444.444,0,1,0,.888,0v-1.667a.444.444,0,0,0-.444-.444" transform="translate(-592.508 -534.807)" fill="#b9262c"/>
        <path id="Path_840" data-name="Path 840" d="M787.171,376.2H785.5a.444.444,0,1,0,0,.888h1.667a.444.444,0,0,0,0-.888" transform="translate(-762.114 -365.201)" fill="#b9262c"/>
        <path id="Path_841" data-name="Path 841" d="M447.247,212.468a.444.444,0,1,0-.628.628l.68.679a.444.444,0,0,0,.628-.628Z" transform="translate(-433.439 -206.131)" fill="#b9262c"/>
        <path id="Path_842" data-name="Path 842" d="M447.3,516.861l-.68.682a.444.444,0,0,0,.629.627l.68-.682a.444.444,0,0,0-.629-.627" transform="translate(-433.439 -501.627)" fill="#b9262c"/>
        <path id="Path_843" data-name="Path 843" d="M755.033,520.236a.444.444,0,0,0-.628.628l.583.583a.444.444,0,1,0,.628-.628Z" transform="translate(-732.228 -504.904)" fill="#b9262c"/>
        <path id="Path_844" data-name="Path 844" d="M751.343,213.9a.442.442,0,0,0,.313-.13l.681-.679a.444.444,0,0,0-.627-.629l-.681.679a.444.444,0,0,0,.314.758" transform="translate(-728.951 -206.131)" fill="#b9262c"/>
        <path id="Path_845" data-name="Path 845" d="M590.732,242.123a.423.423,0,0,0-.56.211l-1.405,3.106h-.006a1.008,1.008,0,0,0-.753,1.678l-.316.7a.423.423,0,1,0,.771.349l.321-.711a1.007,1.007,0,0,0,.749-1.655l1.411-3.118a.423.423,0,0,0-.211-.56" transform="translate(-570.478 -235.009)" fill="#b9262c"/>
      </g>
    </g>
  </g>
</svg>
