<svg xmlns="http://www.w3.org/2000/svg" width="42" height="42" viewBox="0 0 42 42">
  <g id="utilities-power-line-icon" transform="translate(1858 -7284)">
    <g id="Ellipse_85" data-name="Ellipse 85" transform="translate(-1858 7284)" fill="#fff" stroke="#b9262c" stroke-width="1">
      <circle cx="21" cy="21" r="21" stroke="none"/>
      <circle cx="21" cy="21" r="20.5" fill="none"/>
    </g>
    <g id="Group_408" data-name="Group 408" transform="translate(-1846.668 7288)">
      <g id="Group_409" data-name="Group 409">
        <path id="Path_918" data-name="Path 918" d="M19.335,14.5v-1.45h0a.479.479,0,0,0-.137-.342L13.469,6.985,11.089.321A.482.482,0,0,0,10.634,0H8.7a.482.482,0,0,0-.455.321L5.866,6.985.142,12.709A.479.479,0,0,0,0,13.051H0V14.5H.967v-.967h.967V14.5H2.9v-.967H5.8v.283L.142,19.477A.479.479,0,0,0,0,19.819H0v1.45H.967V20.3h.967v.967H2.9V20.3H5.8v.391L1.968,30.274a.484.484,0,0,0,.449.663h.967a.483.483,0,0,0,.342-.142l5.942-5.942,5.942,5.942a.484.484,0,0,0,.342.142h.967a.484.484,0,0,0,.449-.663l-3.833-9.581V20.3h2.9v.967H17.4V20.3h.967v.967h.967v-1.45h0a.479.479,0,0,0-.137-.342l-5.659-5.659v-.283h2.9V14.5H17.4v-.967h.967V14.5ZM9.668,11.318l2.217,2.217H7.451Zm-2.9,1.533V8.418l2.217,2.217Zm3.584-2.217,2.217-2.217v4.434Zm-.683-.683L7.451,7.734h4.434Zm-2.9,5.234L8.984,17.4,6.767,19.618Zm.683-.683h4.434L9.668,16.718Zm5.117.683v4.434L10.351,17.4ZM9.042.967h1.252l2.072,5.8H6.97ZM1.65,12.568,5.8,8.418v4.15Zm0,6.767,4.15-4.15v4.15ZM3.184,29.969H3.131l3.33-8.324,2.524,2.524Zm3.784-9.184,2.7-2.7,2.7,2.7-2.7,2.7Zm3.384,3.384,2.524-2.524,3.33,8.324h-.053Zm7.334-4.834h-4.15v-4.15Zm-4.15-6.767V8.418l4.15,4.15Z" fill="#b9262c"/>
      </g>
    </g>
  </g>
</svg>
