<svg xmlns="http://www.w3.org/2000/svg" xmlns:xlink="http://www.w3.org/1999/xlink" width="42" height="42" viewBox="0 0 42 42">
  <defs>
    <clipPath id="clip-path">
      <rect id="Rectangle_239" data-name="Rectangle 239" width="28" height="23.284" fill="#b9262c" stroke="#b9262c" stroke-width="0.5"/>
    </clipPath>
  </defs>
  <g id="utilities-land-management-icon" transform="translate(1858 -7501)">
    <g id="Ellipse_88" data-name="Ellipse 88" transform="translate(-1858 7501)" fill="#fff" stroke="#b9262c" stroke-width="1">
      <circle cx="21" cy="21" r="21" stroke="none"/>
      <circle cx="21" cy="21" r="20.5" fill="none"/>
    </g>
    <g id="Group_411" data-name="Group 411" transform="translate(-1851 7510)">
      <g id="Group_410" data-name="Group 410" clip-path="url(#clip-path)">
        <path id="Path_919" data-name="Path 919" d="M27.558,23.284H.442A.442.442,0,0,1,0,22.842V.442A.442.442,0,0,1,.442,0H27.558A.442.442,0,0,1,28,.442v22.4a.442.442,0,0,1-.442.442M.884,22.4H27.116V.884H.884Z" fill="#b9262c" stroke="#b9262c" stroke-width="0.5"/>
        <path id="Path_920" data-name="Path 920" d="M4.442,6.653A.442.442,0,0,1,4,6.211V4.442A.442.442,0,0,1,4.442,4H6.211a.442.442,0,1,1,0,.884H4.884V6.211a.442.442,0,0,1-.442.442" transform="translate(-1.642 -1.642)" fill="#b9262c" stroke="#b9262c" stroke-width="0.5"/>
        <path id="Path_921" data-name="Path 921" d="M41.211,6.653a.442.442,0,0,1-.442-.442V4.884H39.442a.442.442,0,0,1,0-.884h1.768a.442.442,0,0,1,.442.442V6.211a.442.442,0,0,1-.442.442" transform="translate(-16.011 -1.642)" fill="#b9262c" stroke="#b9262c" stroke-width="0.5"/>
        <path id="Path_922" data-name="Path 922" d="M6.211,33.653H4.442A.442.442,0,0,1,4,33.211V31.442a.442.442,0,1,1,.884,0v1.326H6.211a.442.442,0,1,1,0,.884" transform="translate(-1.642 -12.726)" fill="#b9262c" stroke="#b9262c" stroke-width="0.5"/>
        <path id="Path_923" data-name="Path 923" d="M41.211,33.653H39.442a.442.442,0,0,1,0-.884h1.326V31.442a.442.442,0,1,1,.884,0v1.768a.442.442,0,0,1-.442.442" transform="translate(-16.011 -12.726)" fill="#b9262c" stroke="#b9262c" stroke-width="0.5"/>
        <path id="Path_924" data-name="Path 924" d="M22.211,20.421a.442.442,0,0,1-.442-.442V18.653H20.442a.442.442,0,1,1,0-.884h1.326V16.442a.442.442,0,1,1,.884,0v1.326h1.326a.442.442,0,1,1,0,.884H22.653v1.326a.442.442,0,0,1-.442.442" transform="translate(-8.211 -6.568)" fill="#b9262c" stroke="#b9262c" stroke-width="0.5"/>
        <path id="Path_925" data-name="Path 925" d="M16.517,27.516a.441.441,0,0,1-.348-.169l-2.921-3.72L9.766,27.374a.442.442,0,0,1-.648-.6l3.833-4.126a.443.443,0,0,1,.672.028l2.436,3.1,7.055-5.327a.442.442,0,0,1,.341-.083.438.438,0,0,1,.294.193L27.5,26.241a.442.442,0,0,1-.738.487l-3.486-5.289L16.6,26.471l.259.33a.442.442,0,0,1-.347.715" transform="translate(-3.695 -8.358)" fill="#b9262c" stroke="#b9262c" stroke-width="0.5"/>
        <path id="Path_926" data-name="Path 926" d="M12.621,13.242a1.621,1.621,0,1,1,1.621-1.621,1.622,1.622,0,0,1-1.621,1.621m0-2.358a.737.737,0,1,0,.737.737.738.738,0,0,0-.737-.737" transform="translate(-4.516 -4.105)" fill="#b9262c" stroke="#b9262c" stroke-width="0.5"/>
        <path id="Path_927" data-name="Path 927" d="M13.442,17.474A.442.442,0,0,1,13,17.032v-.589a.442.442,0,1,1,.884,0v.589a.442.442,0,0,1-.442.442" transform="translate(-5.337 -6.568)" fill="#b9262c" stroke="#b9262c" stroke-width="0.5"/>
        <path id="Path_928" data-name="Path 928" d="M13.442,8.474A.442.442,0,0,1,13,8.032V7.442a.442.442,0,1,1,.884,0v.589a.442.442,0,0,1-.442.442" transform="translate(-5.337 -2.874)" fill="#b9262c" stroke="#b9262c" stroke-width="0.5"/>
        <path id="Path_929" data-name="Path 929" d="M9.907,16.129a.442.442,0,0,1-.312-.755l.417-.417a.442.442,0,0,1,.625.625L10.22,16a.439.439,0,0,1-.312.13" transform="translate(-3.886 -6.087)" fill="#b9262c" stroke="#b9262c" stroke-width="0.5"/>
        <path id="Path_930" data-name="Path 930" d="M16.271,9.766a.442.442,0,0,1-.312-.755l.417-.417A.442.442,0,1,1,17,9.22l-.417.417a.439.439,0,0,1-.312.13" transform="translate(-6.498 -3.475)" fill="#b9262c" stroke="#b9262c" stroke-width="0.5"/>
        <path id="Path_931" data-name="Path 931" d="M18.032,12.884h-.589a.442.442,0,1,1,0-.884h.589a.442.442,0,0,1,0,.884" transform="translate(-6.979 -4.926)" fill="#b9262c" stroke="#b9262c" stroke-width="0.5"/>
        <path id="Path_932" data-name="Path 932" d="M9.032,12.884H8.442a.442.442,0,0,1,0-.884h.589a.442.442,0,1,1,0,.884" transform="translate(-3.284 -4.926)" fill="#b9262c" stroke="#b9262c" stroke-width="0.5"/>
        <path id="Path_933" data-name="Path 933" d="M16.688,16.129a.439.439,0,0,1-.312-.13l-.417-.417a.442.442,0,1,1,.625-.625l.417.417a.442.442,0,0,1-.312.755" transform="translate(-6.498 -6.087)" fill="#b9262c" stroke="#b9262c" stroke-width="0.5"/>
        <path id="Path_934" data-name="Path 934" d="M10.324,9.766a.439.439,0,0,1-.312-.13L9.595,9.22a.442.442,0,0,1,.625-.625l.417.417a.442.442,0,0,1-.312.755" transform="translate(-3.886 -3.475)" fill="#b9262c" stroke="#b9262c" stroke-width="0.5"/>
      </g>
    </g>
  </g>
</svg>
