<svg xmlns="http://www.w3.org/2000/svg" width="11.876" height="14.845" viewBox="0 0 11.876 14.845">
  <path id="address-icon" d="M165.938-872.578a1.43,1.43,0,0,0,1.048-.436,1.43,1.43,0,0,0,.436-1.048,1.43,1.43,0,0,0-.436-1.048,1.43,1.43,0,0,0-1.048-.436,1.43,1.43,0,0,0-1.048.436,1.43,1.43,0,0,0-.436,1.048,1.43,1.43,0,0,0,.436,1.048A1.43,1.43,0,0,0,165.938-872.578Zm0,5.456A20.426,20.426,0,0,0,169.3-870.9a5.763,5.763,0,0,0,1.095-3.015,4.484,4.484,0,0,0-1.29-3.312,4.3,4.3,0,0,0-3.164-1.29,4.3,4.3,0,0,0-3.164,1.29,4.484,4.484,0,0,0-1.29,3.312,5.763,5.763,0,0,0,1.095,3.015A20.427,20.427,0,0,0,165.938-867.122Zm0,1.967a24.675,24.675,0,0,1-4.463-4.723A7.344,7.344,0,0,1,160-873.914a5.74,5.74,0,0,1,1.791-4.435A5.932,5.932,0,0,1,165.938-880a5.932,5.932,0,0,1,4.147,1.651,5.74,5.74,0,0,1,1.791,4.435,7.344,7.344,0,0,1-1.475,4.036A24.674,24.674,0,0,1,165.938-865.155ZM165.938-874.062Z" transform="translate(-160 880)" fill="#b9262c"/>
</svg>
