<svg xmlns="http://www.w3.org/2000/svg" width="14.568" height="14.568" viewBox="0 0 14.568 14.568">
  <path id="email-icon" d="M87.284-865.432a7.094,7.094,0,0,1-2.841-.574,7.357,7.357,0,0,1-2.313-1.557,7.354,7.354,0,0,1-1.557-2.313A7.092,7.092,0,0,1,80-872.716a7.092,7.092,0,0,1,.574-2.841,7.354,7.354,0,0,1,1.557-2.313,7.354,7.354,0,0,1,2.313-1.557A7.092,7.092,0,0,1,87.284-880a7.092,7.092,0,0,1,2.841.574,7.354,7.354,0,0,1,2.313,1.557,7.354,7.354,0,0,1,1.557,2.313,7.092,7.092,0,0,1,.574,2.841v1.056a2.524,2.524,0,0,1-.737,1.83,2.433,2.433,0,0,1-1.812.756,2.725,2.725,0,0,1-1.2-.273,2.567,2.567,0,0,1-.947-.783,3.509,3.509,0,0,1-1.193.792,3.741,3.741,0,0,1-1.393.264,3.51,3.51,0,0,1-2.577-1.065,3.51,3.51,0,0,1-1.065-2.577,3.51,3.51,0,0,1,1.065-2.577,3.51,3.51,0,0,1,2.577-1.065,3.51,3.51,0,0,1,2.577,1.065,3.51,3.51,0,0,1,1.065,2.577v1.056a1.123,1.123,0,0,0,.31.8,1.03,1.03,0,0,0,.783.328,1.03,1.03,0,0,0,.783-.328,1.123,1.123,0,0,0,.31-.8v-1.056a5.624,5.624,0,0,0-1.693-4.134,5.624,5.624,0,0,0-4.134-1.693,5.624,5.624,0,0,0-4.134,1.693,5.624,5.624,0,0,0-1.693,4.134,5.624,5.624,0,0,0,1.693,4.133,5.624,5.624,0,0,0,4.134,1.694h3.642v1.457Zm0-5.1a2.108,2.108,0,0,0,1.548-.637,2.107,2.107,0,0,0,.637-1.548,2.108,2.108,0,0,0-.637-1.548,2.107,2.107,0,0,0-1.548-.637,2.107,2.107,0,0,0-1.548.637,2.108,2.108,0,0,0-.637,1.548,2.107,2.107,0,0,0,.637,1.548A2.108,2.108,0,0,0,87.284-870.531Z" transform="translate(-80 880)" fill="#b9262c"/>
</svg>
