<svg xmlns="http://www.w3.org/2000/svg" width="13.557" height="13.557" viewBox="0 0 13.557 13.557">
  <path id="phone-icon" d="M132.766-826.443a11.306,11.306,0,0,1-4.651-1.026,13.914,13.914,0,0,1-4.18-2.909,13.912,13.912,0,0,1-2.909-4.18A11.305,11.305,0,0,1,120-839.209a.766.766,0,0,1,.226-.565.766.766,0,0,1,.565-.226h3.05a.7.7,0,0,1,.471.179.688.688,0,0,1,.245.424l.49,2.636a1.328,1.328,0,0,1-.019.508.792.792,0,0,1-.207.358l-1.826,1.845a9.112,9.112,0,0,0,.894,1.346,13.246,13.246,0,0,0,1.139,1.252,13.26,13.26,0,0,0,1.224,1.083,11.908,11.908,0,0,0,1.356.913l1.77-1.77a1.055,1.055,0,0,1,.442-.254,1.214,1.214,0,0,1,.537-.047l2.6.527a.871.871,0,0,1,.433.273.663.663,0,0,1,.169.443v3.05a.767.767,0,0,1-.226.565A.767.767,0,0,1,132.766-826.443Zm-10.488-9.038,1.243-1.243-.32-1.77h-1.676q.094.772.264,1.525A8.25,8.25,0,0,0,122.278-835.481Zm6.741,6.741a9.354,9.354,0,0,0,1.5.508,9.186,9.186,0,0,0,1.535.245v-1.657l-1.77-.358ZM122.278-835.481ZM129.019-828.74Z" transform="translate(-120 840)" fill="#b9262c"/>
</svg>
