<svg xmlns="http://www.w3.org/2000/svg" width="42" height="42" viewBox="0 0 42 42">
  <g id="defense-cargo-unmatch-performance-icon" transform="translate(2771 -7274)">
    <g id="Ellipse_89" data-name="Ellipse 89" transform="translate(-2771 7274)" fill="#fff" stroke="#b9262c" stroke-width="1">
      <circle cx="21" cy="21" r="21" stroke="none"/>
      <circle cx="21" cy="21" r="20.5" fill="none"/>
    </g>
    <g id="Group_423" data-name="Group 423" transform="translate(-2762 7280)">
      <g id="Group_424" data-name="Group 424" transform="translate(0 0)">
        <path id="Path_955" data-name="Path 955" d="M40.985,51.515a4.713,4.713,0,0,1-.894.167l2.243,3.885H39.577a.428.428,0,0,0-.371.214L37.83,58.168,35.6,54.305a4.722,4.722,0,0,1-.6.679l2.457,4.255a.429.429,0,0,0,.743,0l1.623-2.816h3.252a.429.429,0,0,0,.371-.643Z" transform="translate(-19.995 -29.428)" fill="#b9262c"/>
        <path id="Path_956" data-name="Path 956" d="M22.444,14.77a3.015,3.015,0,0,1,0-3.575l.343-.468a3.884,3.884,0,0,0-3.553-6.155l-.577.063a3.013,3.013,0,0,1-3.1-1.787l-.234-.531a3.884,3.884,0,0,0-7.107,0l-.234.531a3.017,3.017,0,0,1-3.1,1.787l-.577-.063A3.884,3.884,0,0,0,.759,10.727l.343.468a3.014,3.014,0,0,1,0,3.575l-.343.468a3.884,3.884,0,0,0,3.554,6.155l.577-.063a3.014,3.014,0,0,1,3.1,1.788l.234.53a3.836,3.836,0,0,0,3.553,2.317h0a3.837,3.837,0,0,0,3.554-2.317l.234-.53a3.018,3.018,0,0,1,3.1-1.788l.577.063a3.884,3.884,0,0,0,3.553-6.155Zm-.17,4.275a2.985,2.985,0,0,1-2.948,1.5l-.577-.063a3.865,3.865,0,0,0-3.974,2.294l-.234.531A3.026,3.026,0,0,1,9,23.3l-.234-.531a3.868,3.868,0,0,0-3.547-2.317,3.98,3.98,0,0,0-.427.023l-.577.063a3.026,3.026,0,0,1-2.769-4.8l.342-.468a3.869,3.869,0,0,0,0-4.588l-.343-.468a3.026,3.026,0,0,1,2.769-4.8l.577.063A3.868,3.868,0,0,0,8.77,3.193L9,2.663a3.026,3.026,0,0,1,5.538,0l.234.53A3.871,3.871,0,0,0,18.75,5.487l.577-.063a3.026,3.026,0,0,1,2.769,4.8l-.343.468a3.869,3.869,0,0,0,0,4.588l.343.468a2.989,2.989,0,0,1,.179,3.3" transform="translate(0 0)" fill="#b9262c"/>
        <path id="Path_957" data-name="Path 957" d="M24.75,20.528h0l-2.711.006-.831-2.58a.927.927,0,0,0-1.764,0l-.832,2.58L15.9,20.528h0a.927.927,0,0,0-.543,1.678l2.2,1.588-.843,2.576a.927.927,0,0,0,1.427,1.037l2.189-1.6,2.189,1.6a.912.912,0,0,0,1.091,0,.913.913,0,0,0,.336-1.038L23.1,23.794l2.2-1.588a.927.927,0,0,0-.543-1.678m.041.983-2.45,1.772a.429.429,0,0,0-.156.481l.941,2.874a.062.062,0,0,1-.025.078.06.06,0,0,1-.081,0l-2.442-1.783a.43.43,0,0,0-.506,0l-2.441,1.783a.061.061,0,0,1-.082,0,.062.062,0,0,1-.025-.078l.941-2.874a.429.429,0,0,0-.156-.481l-2.45-1.772a.069.069,0,0,1,.039-.126h0l3.024.007h0a.43.43,0,0,0,.408-.3l.928-2.878a.069.069,0,0,1,.132,0l.927,2.878a.429.429,0,0,0,.408.3h0l3.023-.007a.067.067,0,0,1,.066.048.06.06,0,0,1-.025.078" transform="translate(-8.551 -9.889)" fill="#b9262c"/>
        <path id="Path_958" data-name="Path 958" d="M16.762,11.687a7.971,7.971,0,1,0,7.971,7.971,7.98,7.98,0,0,0-7.971-7.971m0,15.085a7.114,7.114,0,1,1,7.114-7.114,7.121,7.121,0,0,1-7.114,7.114" transform="translate(-5.022 -6.676)" fill="#b9262c"/>
        <path id="Path_959" data-name="Path 959" d="M5.747,58.166,4.371,55.78A.429.429,0,0,0,4,55.566H1.243l2.243-3.885a4.664,4.664,0,0,1-.894-.168L.129,55.78a.429.429,0,0,0,.371.643H3.752l1.623,2.815a.429.429,0,0,0,.743,0L8.577,54.98a4.7,4.7,0,0,1-.6-.68Z" transform="translate(-0.041 -29.426)" fill="#b9262c"/>
      </g>
    </g>
  </g>
</svg>
