<svg xmlns="http://www.w3.org/2000/svg" xmlns:xlink="http://www.w3.org/1999/xlink" width="42" height="42" viewBox="0 0 42 42">
  <defs>
    <clipPath id="clip-path">
      <rect id="Rectangle_243" data-name="Rectangle 243" width="24.28" height="27.358" fill="#b9262c"/>
    </clipPath>
  </defs>
  <g id="defense-cargo-multi-mission-versatility-icon" transform="translate(2771 -7432)">
    <g id="Ellipse_90" data-name="Ellipse 90" transform="translate(-2771 7432)" fill="#fff" stroke="#b9262c" stroke-width="1">
      <circle cx="21" cy="21" r="21" stroke="none"/>
      <circle cx="21" cy="21" r="20.5" fill="none"/>
    </g>
    <g id="Group_426" data-name="Group 426" transform="translate(-2762 7439)">
      <g id="Group_425" data-name="Group 425" clip-path="url(#clip-path)">
        <path id="Path_960" data-name="Path 960" d="M23.407,18.569a1.109,1.109,0,0,0-.127-.069h0a12.115,12.115,0,0,0,0-9.641.579.579,0,0,0,.061-.032,1.71,1.71,0,1,0-1.67-2.984,1.754,1.754,0,0,0-.174.112,12.126,12.126,0,0,0-7.658-4.3,1.709,1.709,0,0,0-3.417,0A12.11,12.11,0,0,0,2.783,5.956c-.036-.027-.073-.053-.112-.076a1.71,1.71,0,0,0-1.8,2.909A1.313,1.313,0,0,0,1,8.858,12.125,12.125,0,0,0,1,18.5a.6.6,0,0,0-.062.032,1.71,1.71,0,0,0,1.671,2.984,1.754,1.754,0,0,0,.174-.112A12.127,12.127,0,0,0,10.422,25.7a1.709,1.709,0,0,0,3.417,0A12.129,12.129,0,0,0,21.5,21.4c.035.027.072.05.109.074a1.71,1.71,0,0,0,1.8-2.909M22.171,6.736a.684.684,0,0,1,.669,1.194.7.7,0,0,1-.931-.263.685.685,0,0,1,.262-.931M12.131,1.025a.684.684,0,1,1-.685.685.685.685,0,0,1,.685-.685M1.191,6.974a.684.684,0,1,1,1.164.72.7.7,0,0,1-.942.222.685.685,0,0,1-.222-.942M2.108,20.62a.7.7,0,0,1-.931-.262.684.684,0,1,1,.931.262m10.023,5.711a.684.684,0,1,1,.683-.683.685.685,0,0,1-.683.683M23.09,20.383a.7.7,0,0,1-.942.222.684.684,0,1,1,.942-.222M12.67,6.517V3.332a1.724,1.724,0,0,0,.885-.678,11.1,11.1,0,0,1,7.321,4.164.368.368,0,0,0-.016.05,1.705,1.705,0,0,0,0,.937L18,9.529a7.237,7.237,0,0,1,.532.878l2.9-1.745a1.706,1.706,0,0,0,.8.358,11.1,11.1,0,0,1,0,9.317,1.687,1.687,0,0,0-.786.345l-2.9-1.747a7.2,7.2,0,0,1-.53.878l2.858,1.72a1.687,1.687,0,0,0-.027.882c.009.041.021.081.034.12A11.093,11.093,0,0,1,13.554,24.7a1.713,1.713,0,0,0-.884-.676V20.84H11.613v3.179a1.712,1.712,0,0,0-.9.682A11.106,11.106,0,0,1,3.4,20.539a1.684,1.684,0,0,0,0-1.024L6.257,17.8a7.07,7.07,0,0,1-.527-.881L2.818,18.671a1.689,1.689,0,0,0-.77-.333,11.116,11.116,0,0,1,0-9.317,1.666,1.666,0,0,0,.784-.346l2.9,1.75a7.3,7.3,0,0,1,.53-.88L3.41,7.824A1.7,1.7,0,0,0,3.4,6.819a11.109,11.109,0,0,1,7.307-4.161,1.716,1.716,0,0,0,.9.682V6.517Z" transform="translate(0)" fill="#b9262c"/>
        <path id="Path_961" data-name="Path 961" d="M57.676,75.762l-.842-.349a.9.9,0,0,1-.487-1.175l.4-.964a.9.9,0,0,1,1.176-.487l.842.349q.083-.089.171-.171l-.349-.842a.9.9,0,0,1,.488-1.176l.962-.4a.9.9,0,0,1,1.176.487l.348.842c.079,0,.162,0,.243,0l.348-.841a.9.9,0,0,1,1.176-.487l.962.4a.9.9,0,0,1,.487,1.176l-.349.842q.091.086.177.177l.862-.355a.9.9,0,0,1,1.175.489l.4.964a.9.9,0,0,1-.489,1.175l-.862.356V76l.841.348a.9.9,0,0,1,.487,1.176l-.4.963a.9.9,0,0,1-1.176.487L64.6,78.63c-.056.059-.113.116-.172.171l.349.841a.9.9,0,0,1-.487,1.176l-.962.4a.9.9,0,0,1-1.176-.488l-.348-.84c-.079,0-.161,0-.243,0l-.348.841a.9.9,0,0,1-1.176.487l-.963-.4a.9.9,0,0,1-.487-1.176l.348-.841q-.091-.085-.176-.176l-.863.355a.9.9,0,0,1-1.175-.49l-.4-.963a.9.9,0,0,1,.489-1.175L57.676,76Zm4.206,3.1a.9.9,0,0,1,.835.554l.334.807.73-.3-.334-.806A.907.907,0,0,1,63.68,78.1a2.913,2.913,0,0,0,.216-.215.919.919,0,0,1,1.015-.232l.806.334.3-.73-.807-.334a.9.9,0,0,1-.554-.882c0-.051,0-.25,0-.3a.906.906,0,0,1,.555-.884l.827-.341-.3-.73-.828.341a.916.916,0,0,1-1.015-.235,2.993,2.993,0,0,0-.218-.218.905.905,0,0,1-.233-1.017l.334-.807-.73-.3-.334.806a.9.9,0,0,1-.836.555h-.4a.9.9,0,0,1-.836-.555l-.334-.806-.73.3.334.807a.906.906,0,0,1-.232,1.015,2.893,2.893,0,0,0-.217.216.916.916,0,0,1-1.015.232l-.808-.335-.3.73.808.335a.9.9,0,0,1,.553.883c0,.049,0,.249,0,.3a.906.906,0,0,1-.555.883l-.828.341.3.73.828-.341a.918.918,0,0,1,1.015.235,2.912,2.912,0,0,0,.218.218.9.9,0,0,1,.234,1.016l-.334.807.73.3.334-.807a.9.9,0,0,1,.835-.555Z" transform="translate(-49.65 -62.204)" fill="#b9262c"/>
        <path id="Path_962" data-name="Path 962" d="M84.37,100.809A2.407,2.407,0,1,1,86.777,98.4a2.41,2.41,0,0,1-2.407,2.407m0-3.788A1.381,1.381,0,1,0,85.751,98.4a1.383,1.383,0,0,0-1.381-1.381" transform="translate(-72.339 -84.723)" fill="#b9262c"/>
      </g>
    </g>
  </g>
</svg>
