<svg xmlns="http://www.w3.org/2000/svg" xmlns:xlink="http://www.w3.org/1999/xlink" width="42" height="42" viewBox="0 0 42 42">
  <defs>
    <clipPath id="clip-path">
      <rect id="Rectangle_242" data-name="Rectangle 242" width="27.543" height="27.552" fill="#b9262c" stroke="#b9262c" stroke-width="0.25"/>
    </clipPath>
  </defs>
  <g id="defense-cargo-global-partnership-icon" transform="translate(2771 -7712)">
    <g id="Ellipse_92" data-name="Ellipse 92" transform="translate(-2771 7712)" fill="#fff" stroke="#b9262c" stroke-width="1">
      <circle cx="21" cy="21" r="21" stroke="none"/>
      <circle cx="21" cy="21" r="20.5" fill="none"/>
    </g>
    <g id="Group_420" data-name="Group 420" transform="translate(-2764 7719)">
      <g id="Group_419" data-name="Group 419" transform="translate(0 0)" clip-path="url(#clip-path)">
        <path id="Path_950" data-name="Path 950" d="M29.829,8.139a8.138,8.138,0,1,0-8.138,8.139,8.148,8.148,0,0,0,8.138-8.139M29.1,7.786H24.937c-.049-3.113-.73-5.668-1.753-6.929A7.441,7.441,0,0,1,29.1,7.786M21.69.706c1.171,0,2.47,2.892,2.54,7.08H19.149C19.22,3.6,20.518.706,21.69.706M20.2.857c-1.023,1.262-1.7,3.816-1.753,6.929H14.276A7.441,7.441,0,0,1,20.2.857M14.276,8.492h4.168c.048,3.113.73,5.668,1.753,6.929a7.441,7.441,0,0,1-5.921-6.929m7.415,7.08c-1.172,0-2.47-2.892-2.541-7.08H24.23c-.07,4.188-1.369,7.08-2.54,7.08m1.494-.151c1.022-1.262,1.7-3.816,1.753-6.929H29.1a7.441,7.441,0,0,1-5.921,6.929" transform="translate(-7.923 0)" fill="#b9262c" stroke="#b9262c" stroke-width="0.25"/>
        <path id="Path_951" data-name="Path 951" d="M49.543,19.925a.354.354,0,0,0-.253-.107,2.709,2.709,0,0,0-3,2.559c-.211,1.48-.5,3.571-.574,4.087a2.01,2.01,0,0,0-1.613.6L42.37,28.8a5.343,5.343,0,0,0-3.115,1.75,5.563,5.563,0,0,0-1.442,4.578h.705c-.094-1.93.278-3.121,1.236-4.08a4.663,4.663,0,0,1,2.858-1.578.356.356,0,0,0,.182-.1L44.6,27.562a1.384,1.384,0,0,1,2.031.055l-3.545,3.546a.353.353,0,0,0,.5.5l3.807-3.807a.352.352,0,0,0,0-.5,3.328,3.328,0,0,0-.991-.708c.041-.292.36-2.584.586-4.171a1.954,1.954,0,0,1,1.937-1.938l-.269,8.932L43,35.125h1l5.255-5.254a.353.353,0,0,0,.1-.239l.284-9.45a.353.353,0,0,0-.1-.256" transform="translate(-22.099 -11.586)" fill="#b9262c" stroke="#b9262c" stroke-width="0.25"/>
        <path id="Path_952" data-name="Path 952" d="M43.663,58.818H36a.353.353,0,0,0-.353.353v2.414a.353.353,0,1,0,.706,0V59.524H43.31v2.061a.353.353,0,1,0,.706,0V59.171a.353.353,0,0,0-.353-.353" transform="translate(-20.84 -34.386)" fill="#b9262c" stroke="#b9262c" stroke-width="0.25"/>
        <path id="Path_953" data-name="Path 953" d="M6.64,35.125.986,29.471.718,20.539a1.954,1.954,0,0,1,1.937,1.938c.226,1.588.545,3.879.586,4.172a3.322,3.322,0,0,0-.991.707.352.352,0,0,0,0,.5l3.807,3.807a.353.353,0,0,0,.5-.5L3.01,27.617a1.384,1.384,0,0,1,2.031-.055l1.809,1.809a.349.349,0,0,0,.181.1,4.664,4.664,0,0,1,2.858,1.578c.958.958,1.33,2.149,1.236,4.079h.705a5.561,5.561,0,0,0-1.443-4.578A5.336,5.336,0,0,0,7.273,28.8L5.54,27.064a2.01,2.01,0,0,0-1.613-.6c-.072-.515-.363-2.606-.574-4.086a2.709,2.709,0,0,0-3-2.559A.353.353,0,0,0,0,20.181l.284,9.45a.354.354,0,0,0,.1.239l5.255,5.254Z" transform="translate(0 -11.586)" fill="#b9262c" stroke="#b9262c" stroke-width="0.25"/>
        <path id="Path_954" data-name="Path 954" d="M18.53,58.818H10.867a.353.353,0,0,0-.353.353v2.414a.353.353,0,1,0,.706,0V59.524h6.957v2.061a.353.353,0,1,0,.706,0V59.171a.353.353,0,0,0-.353-.353" transform="translate(-6.147 -34.386)" fill="#b9262c" stroke="#b9262c" stroke-width="0.25"/>
      </g>
    </g>
  </g>
</svg>
