<svg xmlns="http://www.w3.org/2000/svg" xmlns:xlink="http://www.w3.org/1999/xlink" width="42" height="42" viewBox="0 0 42 42">
  <defs>
    <clipPath id="clip-path">
      <rect id="Rectangle_223" data-name="Rectangle 223" width="26.796" height="26.796" fill="#b9262c"/>
    </clipPath>
  </defs>
  <g id="fire-mission-rapid-deployment-icon" transform="translate(-1161 -7345)">
    <g id="Ellipse_49" data-name="Ellipse 49" transform="translate(1161 7345)" fill="#fff" stroke="#b9262c" stroke-width="1">
      <circle cx="21" cy="21" r="21" stroke="none"/>
      <circle cx="21" cy="21" r="20.5" fill="none"/>
    </g>
    <g id="Group_348" data-name="Group 348" transform="translate(1169 7353)">
      <g id="Group_347" data-name="Group 347" clip-path="url(#clip-path)">
        <path id="Path_781" data-name="Path 781" d="M68.588,19.621l-.931.313A13.428,13.428,0,0,0,55.911,0c-.361,0-.725.014-1.083.043a.542.542,0,1,0,.086,1.081c.33-.026.666-.039,1-.039A12.343,12.343,0,0,1,66.671,19.475l-.091-.993a.542.542,0,1,0-1.08.1l.223,2.443a.994.994,0,0,0,.026.123.541.541,0,0,0,.687.341l2.5-.839a.542.542,0,0,0-.345-1.028" transform="translate(-42.542 -0.001)" fill="#b9262c"/>
        <path id="Path_782" data-name="Path 782" d="M30.36,10.609a.542.542,0,0,0,.944-.536L30.257,8.231a.542.542,0,0,0-.944.536Z" transform="translate(-22.899 -6.23)" fill="#b9262c"/>
        <path id="Path_783" data-name="Path 783" d="M19.311,19.386a.542.542,0,1,0,.81-.722l-1.409-1.582a.542.542,0,1,0-.81.722Z" transform="translate(-13.911 -13.234)" fill="#b9262c"/>
        <path id="Path_784" data-name="Path 784" d="M9.383,29.078l1.748,1.2a.542.542,0,1,0,.613-.894L10,28.183a.542.542,0,1,0-.613.894" transform="translate(-7.163 -21.995)" fill="#b9262c"/>
        <path id="Path_785" data-name="Path 785" d="M3.528,41.336l1.98.756a.542.542,0,0,0,.387-1.014l-1.98-.756a.542.542,0,0,0-.387,1.014" transform="translate(-2.489 -31.547)" fill="#b9262c"/>
        <path id="Path_786" data-name="Path 786" d="M.472,54.95l2.1.273a.6.6,0,0,0,.071,0,.542.542,0,0,0,.069-1.08l-2.1-.273a.542.542,0,0,0-.14,1.076" transform="translate(0 -42.183)" fill="#b9262c"/>
        <path id="Path_787" data-name="Path 787" d="M3.454,66.508a.543.543,0,0,0-.62-.451l-2.093.33A.542.542,0,0,0,.91,67.459L3,67.129a.543.543,0,0,0,.451-.62" transform="translate(-0.222 -51.721)" fill="#b9262c"/>
        <path id="Path_788" data-name="Path 788" d="M7.242,77.563a.543.543,0,0,0-.71-.291l-1.955.817a.542.542,0,1,0,.418,1l1.955-.817a.542.542,0,0,0,.291-.709" transform="translate(-3.323 -60.475)" fill="#b9262c"/>
        <path id="Path_789" data-name="Path 789" d="M13.97,87.492a.543.543,0,0,0-.763-.079l-1.646,1.335a.542.542,0,0,0,.683.842l1.646-1.335a.542.542,0,0,0,.08-.763" transform="translate(-8.896 -68.354)" fill="#b9262c"/>
        <path id="Path_790" data-name="Path 790" d="M21.4,96.533l-1.38,1.608a.542.542,0,1,0,.823.706l1.38-1.608a.542.542,0,0,0-.823-.706" transform="translate(-15.572 -75.443)" fill="#b9262c"/>
        <path id="Path_791" data-name="Path 791" d="M33.81,103.272a.542.542,0,0,0-.717.271l-.871,1.931a.542.542,0,1,0,.989.446l.871-1.931a.542.542,0,0,0-.271-.717" transform="translate(-25.193 -80.83)" fill="#b9262c"/>
        <path id="Path_792" data-name="Path 792" d="M46.229,107.437a.543.543,0,0,0-.661.389l-.533,2.051a.542.542,0,1,0,1.05.272l.532-2.051a.542.542,0,0,0-.389-.661" transform="translate(-35.251 -84.115)" fill="#b9262c"/>
        <path id="Path_793" data-name="Path 793" d="M59.852,108.783a.542.542,0,0,0-.525.558l.067,2.116a.539.539,0,0,0,.542.521h.017a.534.534,0,0,0,.525-.556l-.067-2.115a.545.545,0,0,0-.559-.525" transform="translate(-46.456 -85.183)" fill="#b9262c"/>
        <path id="Path_794" data-name="Path 794" d="M72.693,107.846a.542.542,0,1,0-1.064.211l.412,2.079a.542.542,0,0,0,.531.437.553.553,0,0,0,.106-.01.542.542,0,0,0,.427-.638Z" transform="translate(-56.081 -84.107)" fill="#b9262c"/>
        <path id="Path_795" data-name="Path 795" d="M83.812,103.341a.542.542,0,0,0-.962.5l.981,1.878a.543.543,0,0,0,.481.291.543.543,0,0,0,.48-.794Z" transform="translate(-64.828 -80.693)" fill="#b9262c"/>
        <path id="Path_796" data-name="Path 796" d="M44.124,36.931V30.557a.542.542,0,1,0-1.085,0v6.151l-4.379,4.443a.542.542,0,0,0,.773.761l4.535-4.6a.542.542,0,0,0,.156-.381" transform="translate(-30.151 -23.503)" fill="#b9262c"/>
      </g>
    </g>
  </g>
</svg>
