<svg xmlns="http://www.w3.org/2000/svg" xmlns:xlink="http://www.w3.org/1999/xlink" width="42" height="42" viewBox="0 0 42 42">
  <defs>
    <clipPath id="clip-path">
      <rect id="Rectangle_231" data-name="Rectangle 231" width="42" height="42" transform="translate(0 0)" fill="#b9262c"/>
    </clipPath>
  </defs>
  <g id="disaster-relief-sar-icon" transform="translate(107 -7453)">
    <g id="Ellipse_62" data-name="Ellipse 62" transform="translate(-107 7453)" fill="#fff" stroke="#b9262c" stroke-width="1">
      <circle cx="21" cy="21" r="21" stroke="none"/>
      <circle cx="21" cy="21" r="20.5" fill="none"/>
    </g>
    <g id="Group_374" data-name="Group 374" transform="translate(-107 7453)">
      <g id="Group_373" data-name="Group 373" clip-path="url(#clip-path)">
        <path id="Path_867" data-name="Path 867" d="M23.432,25.863a2.432,2.432,0,1,1,2.432-2.432,2.434,2.434,0,0,1-2.432,2.432m0-3.537a1.105,1.105,0,1,0,1.105,1.105,1.107,1.107,0,0,0-1.105-1.105" transform="translate(-2.432 -2.432)" fill="#b9262c"/>
        <path id="Path_868" data-name="Path 868" d="M21.811,36.621A14.811,14.811,0,1,1,32.283,11.338a.663.663,0,0,1-.938.938,13.484,13.484,0,1,0,3.95,9.534.663.663,0,0,1,1.326,0A14.827,14.827,0,0,1,21.811,36.621" transform="translate(-0.811 -0.811)" fill="#b9262c"/>
        <path id="Path_869" data-name="Path 869" d="M22.621,31.242a8.621,8.621,0,1,1,6.1-14.718.663.663,0,1,1-.938.938,7.3,7.3,0,1,0,2.136,5.158.663.663,0,0,1,1.326,0,8.631,8.631,0,0,1-8.621,8.621" transform="translate(-1.621 -1.621)" fill="#b9262c"/>
        <path id="Path_870" data-name="Path 870" d="M25.663,21.053a.663.663,0,0,1-.469-1.132l9.726-9.726a.663.663,0,0,1,.937.937l-9.726,9.726a.658.658,0,0,1-.469.195" transform="translate(-2.895 -1.158)" fill="#b9262c"/>
      </g>
    </g>
  </g>
</svg>
