<svg xmlns="http://www.w3.org/2000/svg" width="42" height="42" viewBox="0 0 42 42">
  <g id="disaster-relief-community-aid-icon" transform="translate(113 -7702)">
    <g id="Ellipse_79" data-name="Ellipse 79" transform="translate(-113 7702)" fill="#fff" stroke="#b9262c" stroke-width="1">
      <circle cx="21" cy="21" r="21" stroke="none"/>
      <circle cx="21" cy="21" r="20.5" fill="none"/>
    </g>
    <g id="Group_377" data-name="Group 377" transform="translate(-106 7707.581)">
      <path id="Path_879" data-name="Path 879" d="M13.027,4.021a13.612,13.612,0,1,0,14.19,13.988.573.573,0,0,0-1.133-.134,2.907,2.907,0,0,0-.073.5,12.358,12.358,0,0,1-2.436,6.64,2.11,2.11,0,0,1-.542-.312h0a.853.853,0,0,1,.066-.788,2.664,2.664,0,0,0,.2-.572,1.789,1.789,0,0,0-.088-.86,2.9,2.9,0,0,1-.08-.437.624.624,0,0,0-1.16.3c.032.151.057.305.1.456a1.76,1.76,0,0,1,.069.3,1.7,1.7,0,0,1-.122.327,2,2,0,0,0-.108,1.658,1.667,1.667,0,0,0,.89.867A12.4,12.4,0,0,1,1.5,20.381,12.243,12.243,0,0,1,2,13.215a8.1,8.1,0,0,0,2.64,3.057c.246.122.288.285.266,1.02a3.7,3.7,0,0,0,.255,1.754A2.236,2.236,0,0,0,6.382,20.1c.592.282.95.452.875,1.684a2.48,2.48,0,0,0,.61,2.2c.173.187.26.281.227.833-.068,1.1.022,2.549.836,3.2a1.453,1.453,0,0,0,.923.317,1.982,1.982,0,0,0,.56-.086c1.266-.375,1.159-1.537,1.094-2.232a2.3,2.3,0,0,1,0-.748c.051-.154.441-.34.726-.475.546-.261,1.225-.585,1.4-1.314a1.966,1.966,0,0,0-.018-1.083c-.049-.183-.07-.26.1-.605.124-.252.323-.32.782-.422a1.706,1.706,0,0,0,1.259-.743,3.462,3.462,0,0,0,.583-1.979,2.769,2.769,0,0,0-2.459-2.62,2.152,2.152,0,0,0-1.451.26c-.469.217-.663.307-1.093-.033-.1-.082-.121-.151-.134-.494a1.76,1.76,0,0,0-.91-1.658,3.24,3.24,0,0,0-1.782-.328,2.133,2.133,0,0,1-1.589-.389c-.116-.1-.259-.194-.41-.3-.532-.36-.652-.5-.628-.621a3.293,3.293,0,0,1,.549.111,2.45,2.45,0,0,0,1.8-.011,1.6,1.6,0,0,0,.921-1.378c.031-.243.039-.249.109-.294.167-.108.423-.054.826.052a2.627,2.627,0,0,0,1.147.119c1.348-.251,1.348-1.445,1.348-2.159a3.4,3.4,0,0,0-.547-1.6,3.714,3.714,0,0,1-.6-1.91,13,13,0,0,1,1.625-.19.575.575,0,0,0,.556-.569V4.592a.568.568,0,0,0-.584-.571M10.251,5.666a5.037,5.037,0,0,0,.737,2.2,2.535,2.535,0,0,1,.4,1.037c0,.89-.073.937-.381.995a1.837,1.837,0,0,1-.631-.1,2.1,2.1,0,0,0-1.771.1,1.423,1.423,0,0,0-.637,1.138c-.034.271-.044.344-.3.478a1.688,1.688,0,0,1-.95-.088c-.56-.144-1.5-.386-1.906.5-.5,1.1.492,1.774,1.027,2.136.118.079.23.154.32.228a3.259,3.259,0,0,0,2.365.659,2.165,2.165,0,0,1,1.17.172c.3.17.3.3.317.677a1.655,1.655,0,0,0,.582,1.376,1.957,1.957,0,0,0,2.325.179,1.1,1.1,0,0,1,.692-.179c.918.208,1.436.523,1.543,1.585a2.358,2.358,0,0,1-.435,1.275c-.041.072-.288.128-.486.172a2.051,2.051,0,0,0-1.588,1.059,1.77,1.77,0,0,0-.178,1.432.812.812,0,0,1,.011.5c-.044.182-.425.363-.76.523a2.221,2.221,0,0,0-1.34,1.171,3.008,3.008,0,0,0-.056,1.231c.079.847,0,.912-.252.987-.276.082-.372.007-.409-.022-.25-.2-.468-.957-.391-2.2a1.954,1.954,0,0,0-.54-1.711c-.19-.2-.354-.381-.3-1.318.124-2.029-.882-2.509-1.548-2.826-.349-.166-.551-.27-.655-.492a2.667,2.667,0,0,1-.143-1.215,1.973,1.973,0,0,0-.92-2.114A8.4,8.4,0,0,1,2.62,11.837a12.471,12.471,0,0,1,7.631-6.171" transform="translate(0 -1.222)" fill="#b9262c"/>
      <path id="Path_880" data-name="Path 880" d="M32.51,18.937a.946.946,0,0,1-.825-.489l-4.815-8.7a6.51,6.51,0,1,1,11.276,0l-4.811,8.691a.947.947,0,0,1-.826.49m0-17.753A5.319,5.319,0,0,0,27.9,9.169l4.609,8.325,4.609-8.325A5.319,5.319,0,0,0,32.51,1.184" transform="translate(-10.614 0.419)" fill="#b9262c"/>
      <path id="Path_881" data-name="Path 881" d="M34.959,11.918a2.959,2.959,0,1,1,2.959-2.959,2.962,2.962,0,0,1-2.959,2.959m0-4.734a1.775,1.775,0,1,0,1.775,1.775,1.778,1.778,0,0,0-1.775-1.775" transform="translate(-13.063 -2.03)" fill="#b9262c"/>
    </g>
  </g>
</svg>
